<svg xmlns="http://www.w3.org/2000/svg" xml:space="preserve" viewBox="0 0 512 512">
	<path fill="#faa037"
		d="M405.94 201 360 96H152l-45.94 105A120 120 0 0 0 96 249.1V448a32 32 0 0 0 32 32h256a32 32 0 0 0 32-32V249.1a120 120 0 0 0-10.06-48.1M144 32h200a16 16 0 0 1 16 16v48H144a16 16 0 0 1-16-16V48a16 16 0 0 1 16-16" />
	<path fill="#f57828"
		d="M336 32h8a16 16 0 0 1 16 16v48h-24a16 16 0 0 1-16-16V48a16 16 0 0 1 16-16m69.94 169L360 96H152l-7 16h192l-38.94 89A120 120 0 0 0 288 249.1V448a32 32 0 0 0 32 32h64a32 32 0 0 0 32-32V249.1a120 120 0 0 0-10.06-48.1" />
	<path fill="#353744"
		d="M112 373.33a8 8 0 0 1-8-8V360c0-13.23-10.77-24-24-24a8 8 0 0 1 0-16c22.06 0 40 17.94 40 40v5.33a8 8 0 0 1-8 8" />
	<path fill="#d7322d"
		d="M144 352c-12.3 0-23.5 4.63-32 12.23A48 48 0 0 0 32 400c0 45.33 32 80 56 80h48c24 0 56-34.67 56-80a48 48 0 0 0-48-48" />
	<circle cx="72" cy="384" r="16" fill="#f04b37" />
	<path fill="#69a041" d="M152 288a40 40 0 0 0-40 40v8h8a40 40 0 0 0 40-40 8 8 0 0 0-8-8" />
	<path fill="#d7e6e6" d="M368 256h16v-40a8 8 0 0 0-8-8h-48a8 8 0 0 0 0 16h40z" />
	<path fill="#91b945"
		d="M464 256H336a16 16 0 0 0-16 16v192a16 16 0 0 0 16 16h128a16 16 0 0 0 16-16V272a16 16 0 0 0-16-16" />
	<path fill="#69a041"
		d="M464 256h-64a16 16 0 0 0-16 16v192a16 16 0 0 0 16 16h64a16 16 0 0 0 16-16V272a16 16 0 0 0-16-16" />
	<circle cx="432" cy="368" r="40" fill="#fabe19" />
</svg>