<svg xmlns="http://www.w3.org/2000/svg" xml:space="preserve" viewBox="0 0 512 512">
	<clipPath id="a">
		<path
			d="M375.4 282.7c-7.7-1.3-9-7-16.6-11-12-6.4-26.6-2.2-30.7-.3-32.5 15.1-38 118.2 2.4 138.2 6.3 3.1 18 6.4 37.8-.5 3 2.7 22 19.1 41.9 13.5 9.7-2.7 16.4-9.8 24.3-22.3 2.3-3.8 48.5-75.7 23.7-103.1a34 34 0 0 0-21.4-11.3c-9.9-.6-13.7 5.3-22.9 3.2s-9-8.7-17.7-10c-9-1.5-11.9 5.1-20.8 3.6" />
	</clipPath>
	<path fill="#f5b493" d="M81.4 140s-9.2 10.8-21.8 3.5-12-31.5-8.3-38 202.3-16.9 202.3-16.9l-60.3 43.2z" />
	<path fill="#d48f6e"
		d="M57 113s-4 20 7 23.6 3-13.6 3-13.6 1 8.3-2.1 9.2-7.9-19.1-7.9-19.1m62.3 305.3-87-21a970 970 0 0 1 49.1-295l38 130.7z" />
	<path fill="#f5b493"
		d="m81.4 102.3 172.2-13.7S291.9 181.8 293 219s0 172.4 0 172.4l-173.7 27s1.7-134-11.5-197.7-26.4-118.3-26.4-118.3" />
	<path fill="#f5b493" d="M74.8 123.3s4.6-11.7 10.5-4.9 37.3-9.5 37.3-9.5V99l-46.8 3.3a25 25 0 0 0-1 21" />
	<path fill="#d48f6e" d="m285.9 181-54 23.3-44.4 42.1 49.2-32.7L290 198zM116 291l42.2 14.6h35.5l-38.9 7.9-38-7.6z" />
	<path fill="#e39c76" d="M75.7 149.3a904 904 0 0 0-33.9 242.2l33.9 1zm5.7 12.4v230.8l34.7 17.8S101 220.7 81.4 161.8" />
	<path fill="#2d1929"
		d="M371.8 301.4s5.4-62.8 37.7-77.2a4 4 0 0 1 4 6.7c-5.8-4.7-14.6 9.4-18.5 15.7-4.8 7.8-13.3 24.4-18.3 55.7z" />
	<g clip-path="url(#a)">
		<path fill="#e73f46"
			d="M375.4 282.7c-7.7-1.3-9-7-16.6-11-12-6.4-26.6-2.2-30.7-.3-32.5 15.1-38 118.2 2.4 138.2 6.3 3.1 18 6.4 37.8-.5 3 2.7 22 19.1 41.9 13.5 9.7-2.7 16.4-9.8 24.3-22.3 2.3-3.8 48.5-75.7 23.7-103.1a34 34 0 0 0-21.4-11.3c-9.9-.6-13.7 5.3-22.9 3.2s-9-8.7-17.7-10c-9-1.5-11.9 5.1-20.8 3.6" />
		<path fill="#cc3745"
			d="M422 277.4s34.6 7.5 30.2 43.4-37.4 88.8-54.5 90-27.5-13.7-27.5-13.7-27.5 24.3-60 2.5l.2 19.1 101.8 37.6 47-31.2 42.2-106.7-20-41.9z" />
	</g>
	<path fill="#2d1929" d="M377.3 275.5a75 75 0 0 1 34.9-13.4c39.4-4.2 67 26.7 70 30.4-38 22.1-85.4 22.2-105-17" />
	<path fill="#86ebf9" d="M238.3 237.4h85.5V427h-85.5z" />
	<path fill="#40c2d6" d="m238.3 426.9-53-17v-184l53 11.5z" />
	<path fill="#86ebf9" d="m185.2 226 53.2 11.7 85.4-.3-48-14.6z" />
	<path fill="#40c2d6" d="M234.2 239.4a1 1 0 0 1 0-2l89.6-.7a1 1 0 0 1 0 2z" />
	<path fill="#e9faff" d="M238.3 291.2h85.5V360h-85.5z" />
	<ellipse cx="234.3" cy="230.3" fill="#2d1929" rx="7.9" ry="2.7" />
	<path fill="#fff"
		d="M234.2 231.6a4 4 0 0 1-4-3.8l-2.3-53.4a8 8 0 0 0-6.1-7.6L193 159a4 4 0 1 1 2-7.7l28.8 7.6a16 16 0 0 1 12.1 15l2.3 53.5a4 4 0 0 1-4 4.1" />
	<path fill="#231f20"
		d="M282 339c-1-.5-1-4.9-1-5.9l.1-18.9c0-1.7-1-3-3.9-3a.8.8 0 0 0-.5 1.4l.2 2-.2 19.3a15 15 0 0 0 .6 5c.7 2 2.9 2.4 4.6 1.4a1 1 0 0 0 0-1.3m39-1.7h-.2q-1.2 0-6.5-7.7l-3.4-5c3-2.7 10.8-9 10.8-11.5a2.4 2.4 0 0 0-2-1.9l-.6.6c.1 1.3-3.3 3.8-10 10v-7.6q0-3-4-3a.8.8 0 0 0-.5 1.3c.4.6.2 3.3.2 7.2l-.2 12.1c-.1 2 0 5.2.6 7a3 3 0 0 0 2.7 2 4 4 0 0 0 2-.5.8.8 0 0 0 0-1.4q-.4-.2-.7-1.5c-.5-2.3-.3-6.2-.3-9q3.8 6.4 5.5 8.8 2.5 3.6 4.2 3.6a3 3 0 0 0 2-.7 3 3 0 0 0 1-2q0-.8-.5-.8m-20.2-.7a1 1 0 0 0-.8.7c0 1.6-1.1 2-2.5 2h-5c-1.8-1.7-1-4.4-1-25.1q0-3-4-3a.8.8 0 0 0-.5 1.4q.5.9.2 7c0 .2 0 9.8-.2 12.2-.2 3.5-.2 9 3.3 9h8.4c5.5 0 4.6-4.2 2.1-4.2m-28.3 1.5a3 3 0 0 1-.8-1.5c-.6-1.7-.7-1.8-3.7-23.3a3 3 0 0 0-1.2-2 5 5 0 0 0-3-1q-1 0-1 .9c.2 8-2.4 14-3.6 19l-2.4-16.8a3 3 0 0 0-1.2-2.1 6 6 0 0 0-3-1q-.9 0-.9.9c.2 10.5-4.5 17.7-4.5 25.2q0 2.7 1.5 3.5c.8.3 2 0 2-.7a19 19 0 0 1-.6-4.7c0-5.3 2.4-13.2 3-17.8l2 14.3c.3 4 1.3 9.5 5.1 9h.3q1.4 0 1.3-1l-.1-.6a18 18 0 0 1-.5-4c0-5 2.5-13.5 3-17.7l2 14.3q.8 9 4.7 9a4 4 0 0 0 1.8-.5.8.8 0 0 0-.2-1.4" />
	<path fill="#c6c6c6" d="m238.3 359.9-53-8.7v-66.7l53 6.7z" />
</svg>