<svg xmlns="http://www.w3.org/2000/svg" class="icon" viewBox="0 0 1024 1024">
  <path fill="#4fc1f4" d="M642.286 470.218 360.729 632.773v273.261L642.286 743.48z"/>
  <path fill="#c4cadd" d="M466.861 894.14 67.472 663.553c-5.332-3.078-9.658.194-9.658 7.302v106.92c0 4.974 3.03 10.766 6.762 12.924l392.62 226.678c5.333 3.078 9.665-.194 9.665-7.3zm422.474-229.823c0-5.52-3.356-8.059-7.5-5.672L466.86 898.236v110.022c0 8.283 5.041 12.094 11.252 8.507l404.66-233.628c3.624-2.09 6.562-7.714 6.562-12.543z"/>
  <path fill="#243462" d="m475.913 529.052-324.606 187.41L472.072 901.66l324.613-187.416z"/>
  <path fill="#c4cadd" d="m448.169 896.934 43.45-3.357 8.065 81.047-28.315 16.348s-3.242 3.375-11.21-1.267-11.99-92.771-11.99-92.771"/>
  <path fill="#848ba6" d="m97.126 723.727-10.719-6.187v55.26l10.719 6.186zm29.805 17.208-10.719-6.187v55.26l10.719 6.186zm29.805 17.208-10.719-6.187v55.26l10.719 6.186zm29.799 17.208-10.72-6.187v55.254l10.72 6.192z"/>
  <path fill="#4fc1f4" d="M404.088 916.99c6.399 3.695 11.598 12.7 11.598 20.085 0 7.393-5.2 10.392-11.598 6.702-6.404-3.696-11.603-12.7-11.603-20.092s5.199-10.392 11.603-6.696"/>
  <path fill="#c4cadd" d="M453.046 1014.978s13.64 10.967 27.824-.11c14.178-11.081.648-42.498.648-42.498l-28.15.09z"/>
  <path fill="#a3abc1" d="M466.861 903.09s3.908.624 8.368-.879c2.302-.775 4.199-1.278 6.477-3.011l22.34-12.973v52.83l-19.813 11.573v32.87l19.813-11.306v29.29l-24.346 14.36s-2.52 1.533-4.986 2.576a16.7 16.7 0 0 1-4.236 1.15c-.72.08-1.423.183-2.023.219-.927.048-1.594.03-1.594.03z"/>
  <path fill="#f3f5fb" d="M58.42 663.838c1.46-2.417 8.156-.8 8.156-.8l391.778 226.194s5.599 5.538 15.572.824c9.07-4.283 344.99-199.006 405.987-234.367 6.096-3.539 9.422 4.538 9.422 4.538l-.018 9.561-407.235 235.113s-11.737 10.228-32.453-1.157C428.919 892.36 57.814 677.526 57.814 677.526s-.854-11.27.606-13.688"/>
  <path fill="#f3f5fb" d="m467.225 431.603 10.488-4.278 403.988 224.4-.794 4.43-27.2 14.724-386.482-223.25z"/>
  <path fill="#f3f5fb" d="M881.7 651.726s8.217 2.545 7.635 8.98l-4.799 1.89-5.362-4.132-.86-4.787zm-811.92 11.61-.205-12.155 385.107-222.34 12.543 2.762v15.051L81.523 669.34z"/>
  <path fill="#f3f5fb" d="M454.137 429.155s9.791-7.92 23.576-1.83l-1.709 5.138-9.143 8.732-5.065-1.376-3.95-4.86z"/>
  <path fill="#c4cadd" d="m466.855 444.097 1.672-1.436 398.335 217.626c1.181.649 1.509 1.206 1.545 1.842.036.643-.224 1.364-1.34 1.994l-87.723 50-312.737-180.557z"/>
  <path fill="#c4cadd" d="M464.468 443.14s1.642-1.224 4.06-.479l-.037.957-1.642 1.358-2.078-.915z"/>
  <path fill="#4fc1f4" d="M838.723 737.735c6.405-3.702 11.604-.696 11.604 6.702 0 7.392-5.2 16.402-11.604 20.098-6.41 3.702-11.61.697-11.61-6.701 0-7.392 5.2-16.402 11.61-20.099"/>
  <path fill="#848ba6" d="M788.663 777.387c0-8.859-5.4-12.937-12.04-9.101L579.555 882.058c-6.647 3.842-12.04 14.148-12.04 23.007 0 8.858 5.393 12.936 12.04 9.1l197.068-113.772c6.64-3.841 12.04-14.148 12.04-23.006"/>
  <path fill="#f3f5fb" d="M57.814 671.54s-3.236-14.615 16.28-22.965l-4.053 5.72c21.323 22.861 16.5 26.163-9.597 13.536z"/>
  <path fill="#c4cadd" d="M155.215 714.208 466.86 534.28v-89.608s-.897-2.406-2.593-1.43c-30.617 17.59-322.94 185.591-383.762 221.146-1.358.8-3.218 2.473-2.782 4.393.37 1.618 2.842 3.509 3.945 4.242 12.451 8.307 73.546 41.184 73.546 41.184"/>
  <path fill="#4fc1f4" d="m307.609 656.797 310.119-30.671-1.073 113.597c-.012.975.037 1.987-.32 2.684-.364.697-.455.69-1.843 1.49l-133.834 77.267c-2.218 1.284-4.49 2.29-6.665 2.339-2.17.042-4.248-.873-6.374-2.06L311.14 733.797c-2.284-1.278-2.351-1.206-2.939-2.387-.587-1.182-.593-3-.593-4.708z"/>
  <path fill="#bbc6e6" d="M473.593 684.566 64.546 448.4v79.866c0 3.32 2.017 7.18 4.508 8.616l398.098 229.841c3.55 2.055 6.44-.127 6.44-4.865zm422.45-243.905-422.45 243.905v79.866c0 3.314 2.018 4.841 4.508 3.405l413.434-238.694c2.49-1.436 4.508-5.302 4.508-8.616z"/>
  <path fill="#4867bc" d="m471.539 645.964 2.054 38.602 422.45-243.905.163-32.162z"/>
  <path fill="#4867bc" d="m65.37 408.02-.824 40.379 409.047 236.167V647.17z"/>
  <path fill="#375096" d="M508.893 175.877c-14.136-8.162-35.549-9.047-47.788-1.982L73.507 397.672c-12.24 7.07-10.7 19.431 3.43 27.593l375.625 216.863c14.13 8.162 35.549 9.053 47.788 1.982l387.598-223.777c12.24-7.065 10.7-19.432-3.436-27.593z"/>
  <path fill="#bbc6e6" d="m454.9 673.805 43.45-3.356 8.065 81.04-28.314 16.348s-3.242 3.381-11.21-1.26c-7.967-4.647-11.99-92.772-11.99-92.772"/>
  <path fill="#f3f5fb" d="m64.34 439.322 401.037 230.09s7.816 4.406 17.79-.302c9.979-4.714 412.924-237.719 412.924-237.719l-.048 9.27-407.23 235.114s-11.736 10.227-32.452-1.158C435.65 663.232 64.546 448.4 64.546 448.4z"/>
  <path fill="#637dc6" d="m103.857 486.408-10.718-6.186v55.26l10.718 6.185zm29.805 17.208-10.718-6.186v55.26l10.718 6.185zm29.805 17.208-10.718-6.186v55.253l10.718 6.192zm29.8 17.208-10.72-6.192v55.259l10.72 6.186zm217.547 139.84c6.405 3.695 11.603 12.693 11.603 20.085s-5.198 10.392-11.603 6.696c-6.398-3.697-11.597-12.694-11.597-20.087s5.199-10.391 11.597-6.695m434.641-180.57c6.404-3.702 11.603-.696 11.603 6.702 0 7.392-5.199 16.402-11.603 20.098-6.41 3.702-11.61.697-11.61-6.701 0-7.393 5.2-16.403 11.61-20.099"/>
  <path fill="#8ea1d6" d="M473.593 679.961s4.247.213 8.7-.975c2.303-.618 4.242-1.836 6.52-3.211l21.965-12.682v39.627l-19.814 11.433v26.06l19.602-11.318v20.59l-33.174 18.85s-.358.193-.794.35a8 8 0 0 1-1.066.255c-.612.103-1.94.049-1.94.049z"/>
  <path fill="#637dc6" d="M795.394 539.607c0-8.864-5.398-12.942-12.04-9.1L586.288 644.279c-6.647 3.836-12.04 14.142-12.04 23.007 0 8.858 5.393 12.936 12.04 9.1l197.068-113.778c6.64-3.836 12.04-14.142 12.04-23"/>
  <path fill="#98aada" d="M722.581 386.577v21.135l-14.626 6.756-2.945-19.226z"/>
  <path fill="#98a9d9" d="M494.418 267.588c-11.494-6.635-28.908-7.356-38.863-1.612L231.069 395.587c-9.949 5.745-8.7 15.797 2.794 22.431l218.656 126.243c11.488 6.635 28.902 7.356 38.857 1.612l224.486-129.606c9.949-5.75 8.7-15.802-2.793-22.437z"/>
  <path fill="#98aada" d="M224.356 383.596v20.959l8.822 7.756 8.537-16.96z"/>
  <path fill="#4463b9" d="M494.418 245.975c-11.494-6.635-28.908-7.356-38.863-1.612L231.069 373.968c-9.949 5.75-8.7 15.803 2.794 22.437l218.656 126.243c11.488 6.635 28.902 7.356 38.857 1.612l224.486-129.612c9.949-5.744 8.7-15.796-2.793-22.43z"/>
  <path fill="#3e5aa9" d="m473.102 290.122 50.412 29.108v9.7l37.282 21.529h15.62l57.769 33.356-46.117 26.623h-15.984l-37.603 21.71v11.622l-57.453 33.174-52.411-30.26v-9.41l-37.343-21.558h-17.583L312.747 382.7l48.97-28.272 17.329-.152 36.864-21.286-.049-9.822z"/>
  <path fill="#637dc6" d="m473.102 281.457 50.412 29.102v9.707l37.282 21.528h15.62l57.769 33.35-46.117 26.63h-15.984l-37.603 21.71v11.621l-57.453 33.174-52.411-30.265v-9.404l-37.343-21.559h-17.583l-56.944-33.016 48.97-28.272 17.329-.157 36.864-21.28-.049-9.822z"/>
  <path fill="#d9dff1" d="M417.515 355.652c8.217-4.745 21.565-4.745 29.781 0 8.216 4.744 8.216 12.445 0 17.19-8.216 4.75-21.564 4.75-29.78 0-8.223-4.745-8.223-12.446 0-17.19"/>
  <path fill="#d9dff1" d="M446.805 349.423c5.86-3.381 15.378-3.381 21.238 0s5.859 8.876 0 12.257-15.378 3.381-21.238 0-5.859-8.876 0-12.257"/>
  <path fill="#d9dff1" d="M461.299 353.313c12.07-6.968 31.671-6.968 43.74 0 12.077 6.974 12.077 18.286 0 25.26-12.069 6.968-31.67 6.968-43.74 0-12.076-6.974-12.076-18.286 0-25.26"/>
  <path fill="#d9dff1" d="M473.417 381.979c11.064-6.387 29.023-6.387 40.081 0s11.058 16.753 0 23.14c-11.058 6.386-29.017 6.386-40.08 0-11.059-6.387-11.059-16.754 0-23.14"/>
  <path fill="#d9dff1" d="m447.296 355.652-29.78 17.19 55.901 32.276 29.78-17.19z"/>
  <path fill="#4fc1f4" d="M156.378 418.176s-4.35 17.002 14.051 27.63L465.564 616.2s11.422 9.519 34.507-7.81l312.283-180.296s18.795-9.7 11.603-29.06L473.593 580.907z"/>
  <path fill="#bbc6e6" d="M473.593 515.443 64.546 279.283v79.865c0 3.314 2.017 7.174 4.508 8.61l398.098 229.841c3.55 2.055 6.44-.127 6.44-4.865zm422.45-243.905-422.45 243.905v79.866c0 3.32 2.018 4.847 4.508 3.411l413.434-238.7c2.49-1.436 4.508-5.295 4.508-8.616z"/>
  <path fill="#4867bc" d="m471.539 476.84 2.054 38.603 422.45-243.905.163-32.161z"/>
  <path fill="#4867bc" d="m65.37 238.898-.824 40.384 409.047 236.161v-37.397z"/>
  <path fill="#375096" d="M508.893 6.754c-14.136-8.162-35.549-9.047-47.788-1.982L73.507 228.555c-12.24 7.065-10.7 19.432 3.43 27.587l375.625 216.87c14.13 8.155 35.549 9.046 47.788 1.98L887.948 251.21c12.24-7.065 10.7-19.432-3.436-27.587z"/>
  <path fill="#bbc6e6" d="m454.9 504.682 43.45-3.356 8.065 81.04-28.314 16.354s-3.242 3.375-11.21-1.266-11.99-92.772-11.99-92.772"/>
  <path fill="#f3f5fb" d="m64.34 270.2 401.037 230.096s7.816 4.405 17.79-.31c9.979-4.707 412.924-237.712 412.924-237.712l-.048 9.264-407.23 235.114s-11.736 10.227-32.452-1.158C435.65 494.11 64.546 279.282 64.546 279.282z"/>
  <path fill="#637dc6" d="M103.857 317.285 93.14 311.1v55.26l10.718 6.185zm29.805 17.208-10.718-6.186v55.26l10.718 6.185zm29.805 17.208-10.718-6.186v55.26l10.718 6.185zm29.8 17.208-10.72-6.186v55.253l10.72 6.192zm217.547 139.84c6.405 3.695 11.603 12.693 11.603 20.085s-5.198 10.392-11.603 6.696c-6.398-3.697-11.597-12.694-11.597-20.087s5.199-10.391 11.597-6.695m434.641-180.57c6.404-3.696 11.603-.696 11.603 6.702s-5.199 16.402-11.603 20.104c-6.41 3.696-11.61.69-11.61-6.701 0-7.399 5.2-16.409 11.61-20.105"/>
  <path fill="#8ea1d6" d="M473.593 510.839s4.247.218 8.7-.976c2.303-.612 4.242-1.836 6.52-3.211l21.965-12.676v39.62l-19.814 11.44v26.055l19.602-11.313v20.59l-33.174 18.85s-.358.193-.794.345a7 7 0 0 1-1.066.254c-.612.11-1.94.055-1.94.055z"/>
  <path fill="#637dc6" d="M795.394 370.484c0-8.858-5.398-12.936-12.04-9.1L586.288 475.156c-6.647 3.842-12.04 14.148-12.04 23.007 0 8.858 5.393 12.936 12.04 9.1l197.068-113.778c6.64-3.836 12.04-14.142 12.04-23"/>
  <path fill="#323654" d="M494.418 132.511c-11.494-6.64-28.908-7.362-38.863-1.611L231.069 260.505c-9.949 5.744-8.7 15.796 2.794 22.437l218.656 126.236c11.488 6.635 28.902 7.362 38.857 1.612l224.486-129.605c9.949-5.744 8.7-15.803-2.793-22.437z"/>
  <path fill="#98aada" d="M722.581 177.773v21.134l-14.626 6.756-2.945-19.231z"/>
  <path fill="#98a9d9" d="M494.418 58.784c-11.494-6.635-28.908-7.356-38.863-1.612L231.069 186.777c-9.949 5.75-8.7 15.802 2.794 22.437l218.656 126.242c11.488 6.635 28.902 7.356 38.857 1.606l224.486-129.605c9.949-5.744 8.7-15.796-2.793-22.431z"/>
  <path fill="#98aada" d="M224.356 174.792v20.959l8.822 7.755 8.537-16.96z"/>
  <path fill="#4463b9" d="M494.418 37.17c-11.494-6.634-28.908-7.355-38.863-1.611L231.069 165.164c-9.949 5.75-8.7 15.802 2.794 22.437l218.656 126.236c11.488 6.641 28.902 7.362 38.857 1.612l224.486-129.605c9.949-5.744 8.7-15.796-2.793-22.437z"/>
  <path fill="#3e5aa9" d="m473.102 81.318 50.412 29.102v9.706l37.282 21.529h15.62l57.769 33.35-46.117 26.623h-15.984l-37.603 21.716v11.621l-57.453 33.168-52.411-30.26v-9.403l-37.343-21.558h-17.583l-56.944-33.017 48.97-28.272 17.329-.157 36.864-21.28-.049-9.822z"/>
  <path fill="#637dc6" d="m473.102 72.653 50.412 29.102v9.707l37.282 21.528h15.62l57.769 33.35-46.117 26.623h-15.984l-37.603 21.71v11.628l-57.453 33.168-52.411-30.26v-9.404l-37.343-21.558h-17.583l-56.944-33.016 48.97-28.272 17.329-.158 36.864-21.286-.049-9.815z"/>
  <path fill="#d9dff1" d="M417.515 146.841c8.217-4.744 21.565-4.744 29.781 0 8.216 4.75 8.216 12.452 0 17.196s-21.564 4.744-29.78 0c-8.223-4.744-8.223-12.445 0-17.196"/>
  <path fill="#d9dff1" d="M446.805 140.618c5.86-3.387 15.378-3.387 21.238 0 5.859 3.381 5.859 8.871 0 12.258-5.86 3.381-15.378 3.381-21.238 0-5.859-3.387-5.859-8.877 0-12.258"/>
  <path fill="#d9dff1" d="M461.299 144.508c12.07-6.968 31.671-6.968 43.74 0 12.077 6.968 12.077 18.287 0 25.255-12.069 6.974-31.67 6.974-43.74 0-12.076-6.968-12.076-18.287 0-25.255"/>
  <path fill="#d9dff1" d="M473.417 173.174c11.064-6.386 29.023-6.386 40.081 0s11.058 16.754 0 23.14-29.017 6.386-40.08 0c-11.059-6.386-11.059-16.753 0-23.14"/>
  <path fill="#d9dff1" d="m447.296 146.841-29.78 17.196 55.901 32.277 29.78-17.196z"/>
  <path fill="#4fc1f4" d="m829.325 756.561 99.558 55.417s34.047 9.156 34.047-36.645V605.458s.26-24.994-27.836-41.22l-187.088-108.01-18.972 10.954L912.07 572.854s24.91 14.796 29.381 31.526c4.98 18.62 1.442 167.044 1.442 167.044s-.248 26.97-17.038 17.275c-16.79-9.689-80.114-41.614-80.114-41.614zM397.551 923.8l15.226 8.792-150.043 86.621s-32.41 16.39-32.41-36.997v-388.33s-3.139-27.521 25.406-44.002l57.065-32.944 15.772 9.1-63.978 40.858s-12.482 8.58-14.518 31.223c-2.17 24.115-4.254 388.985 0 386.276 0 0-1.006 26.788 16.087 16.918l125.788-72.625z"/>
</svg>
