<svg xmlns="http://www.w3.org/2000/svg" viewBox="0 0 512 512">
	<defs>
		<linearGradient id="a" x1="163.5" x2="296.6" y1="185.7" y2="416.3" gradientUnits="userSpaceOnUse">
			<stop offset="0" stop-color="oklch(0.98 0.01 260)" />
			<stop offset=".5" stop-color="oklch(0.93 0.02 260)" />
			<stop offset="1" stop-color="oklch(0.86 0.03 260)" />
		</linearGradient>
	</defs>
	<path fill="url(#a)" stroke="oklch(0.65 0.04 260)" stroke-miterlimit="10" stroke-width="4"
		d="m381 340.1-52.8-97.3-51-94.2a24 24 0 0 0-42.4 0l-51 94.2-52.8 97.3a24.3 24.3 0 0 0 21.2 35.9h207.7a24.2 24.2 0 0 0 21.1-35.9ZM243 216.6q1.5-1.3 5.5-1.3h15.3q4 0 5.6 1.3c1.6 1.3 1.5 2.4 1.4 4.7l-3 71.8q-.2 3.4-1.6 4.6c-1.4 1.2-2.7 1.3-5.4 1.3h-9.4q-4 0-5.3-1.3c-1.3-1.3-1.5-2.3-1.6-4.6l-2.9-71.9q0-3.3 1.4-4.6Zm29.1 107.6q0 7-3 9.6t-11 2.6H254q-8-.1-11-2.6c-3-2.5-3-5-3-9.6v-2.9q0-7 3-9.6t11-2.5h4q8 0 11 2.5c3 2.5 3 5 3 9.6Z" />
</svg>