<svg xmlns="http://www.w3.org/2000/svg" xml:space="preserve" viewBox="0 0 1024 1024">
  <path d="M96.038628 623.678467c23.657882-.017884 46.822258-.020508 69.986564-.063477 6.080445-.011291 6.661164-.566284 6.668839-6.542969.033355-25.997558-.083939-51.995971.117843-77.992004.037278-4.804687-1.804046-5.894775-6.189605-5.867493-24.663437.15326-49.336541-.291198-73.988571.26117-9.705155.217407-19.566597-7.627014-19.712876-19.524536-.12915-10.503907 8.512337-18.214325 19.733444-18.220063 24.33107-.012481 48.662171.014954 72.993241-.000732 6.656585-.004272 7.049057-.401489 7.05513-7.159821.023178-25.830932.027862-51.661865.011001-77.492797-.004409-6.754486-.051635-6.763306-7.045532-6.765198-24.664383-.006653-49.328964.050232-73.993019-.040558-8.504631-.031281-15.877548-5.840424-17.757729-13.560913-2.280861-9.365784 1.276207-18.007477 9.081635-22.216522 2.733444-1.473999 5.626762-1.830719 8.680252-1.82602 24.664314.037934 49.328751.031647 73.993103.007966 6.725403-.00647 7.019531-.329316 7.022995-7.077973.013245-25.830963-.790909-51.692444.191345-77.486145 1.740021-45.691833 22.936051-79.49733 64.593079-99.451218 11.487198-5.502426 23.877624-8.055206 36.766083-8.002594 27.830261.113572 55.661346.039292 83.492096.02208 7.191131-.00444 7.928405-.763443 7.932067-8.09848.012757-25.497589-.005279-50.995171.009827-76.492745.007233-12.201408 6.53421-19.252579 17.877106-19.382477 10.988983-.125846 18.659088 7.76738 18.697418 19.590004.08432 25.997307.167542 51.996445-.088989 77.991471-.050446 5.110779 1.436981 6.547012 6.469635 6.504715 26.162414-.220047 52.327606-.092484 78.491852-.112686 6.972442-.005387 7.595275-.654206 7.599945-7.821946.016784-25.664276-.035187-51.328659.029449-76.992775.027069-10.751411 7.179932-18.655006 17.055969-19.1455 10.406037-.516807 18.429963 6.886231 18.457856 17.315323.071289 26.664002.019348 53.328323.026001 79.992523.001647 6.58635.017761 6.640747 6.725585 6.646912 26.164246.024078 52.328492.020004 78.492737.005035 7.10968-.004074 8.135559-.998138 8.142578-8.040939.02649-26.33075-.016906-52.661598.035645-78.992279.016479-8.275711 4.742126-14.23307 12.699402-16.380699 7.552002-2.038246 15.54425 1.02079 19.633301 7.449547 1.865356 2.932693 2.350708 6.115242 2.34375 9.534179-.052796 25.997246-.035035 51.994644-.023743 77.992005.00354 8.227737.220764 8.445327 8.378479 8.447769 27.664123.008255 55.328186-.007736 82.992309.001159 47.625733.015336 91.382752 36.14209 100.638123 82.921982 1.36438 6.896149 2.014282 13.771637 1.987976 20.792939-.101074 26.997131-.042602 53.994842-.039123 80.99234.000915 7.266113.008117 7.28891 7.074279 7.291229 24.664368.008026 49.328797-.010224 73.993164.000427 11.150086.004791 18.813294 7.383423 18.930664 18.173645.121094 11.118591-7.91217 19.409332-19.042907 19.434967-24.830933.05719-49.663147.146515-74.492066-.080963-5.045776-.046204-6.600769 1.459381-6.559265 6.521088.215576 26.329101.18628 52.661529.01117 78.991272-.030091 4.53128 1.276428 6.107422 5.949646 6.072418 25.162902-.188599 50.328064-.11673 75.492248-.067139 9.038513.017792 16.650452 6.438202 18.468445 15.35199 1.760315 8.630859-3.186218 17.701538-11.415649 21.165222-2.402161 1.011047-4.856385 1.03418-7.354126 1.034485-24.164429.003357-48.328858-.00769-72.493287.013061-8.20935.00702-8.556823.362061-8.560363 8.343506-.011353 25.164307-.013245 50.328675-.002564 75.492981.002686 6.225464.288269 6.532532 6.449463 6.538147 24.997681.022888 50.003235.37323 74.98877-.176086 8.735778-.192078 18.603393 7.787964 18.57373 18.805969-.028686 10.67627-7.8172 18.910034-18.410766 18.948975-24.497437.090027-48.995301.023315-73.493042.051025-7.979187.008972-8.099671.161804-8.101929 8.098023-.007141 25.497619-.164368 50.99646.028564 76.492614.342041 45.200623-28.155334 83.96698-70.893188 99.450745-13.361023 4.840698-27.145081 6.56897-41.165161 6.677612-24.662293.190979-49.327332.008484-73.991211.019409-7.129517.003174-7.882324.543335-7.84784 7.598816.10437 21.324768-.408508 42.651673.337769 63.976502.19751 5.644043-.072022 11.340332-.613525 16.96582-.754578 7.838623-9.412903 14.905029-17.231446 14.488525-9.529114-.507629-17.134643-8.018432-17.224426-17.462097-.152161-15.99707-.052307-31.996521-.0625-47.994934-.00647-10.16571.035095-20.331848-.052246-30.496887-.051392-5.982727-1.065064-6.987732-7.029358-6.999817-26.496643-.053528-52.99353-.080505-79.490234-.046387-6.450867.008301-6.782166.433228-6.783326 6.771668-.004699 25.830933.040833 51.661926.001282 77.492798-.012878 8.447571-4.272583 14.694702-11.652283 17.493469-11.741363 4.452881-23.842987-4.31488-23.895324-17.540344-.100312-25.330567-.013947-50.661804-.024445-75.992798-.003357-8.102234-.03128-8.161804-7.907745-8.174866-25.497132-.042297-50.994354-.055359-76.491547-.038696-8.02771.005249-8.038208.064331-8.037567 7.842956.002106 25.164307.054138 50.328675-.000916 75.492859-.021301 9.728028-5.447998 16.726258-14.483673 19.082642-11.107299 2.896728-22.562652-6.396851-22.458099-17.839539.238922-26.159118.171051-52.321045.395508-78.480407.039093-4.555176-1.641205-6.134095-6.16272-6.116028-25.99646.103821-52.004852-.503235-77.988464.069763-53.954834 1.189819-99.498322-38.163513-107.444977-89.133484-.842438-5.403503-1.331192-10.917236-1.360764-16.383179-.13887-25.663513-.057602-51.328186-.059982-76.992492-.000778-8.337708-.007782-8.354126-8.569-8.354004-24.164414.000488-48.328865.03717-72.493256.013489-8.534714-.008362-16.264992-6.371582-17.891334-14.574585-1.920212-9.685242 2.227394-18.292542 10.456405-21.972962 3.692749-1.651611 7.542397-.80011 11.816941-1.057983M210.292175 724.5c.42891 10.466248-.509521 20.925903.874039 31.42041 4.369186 33.140808 33.157013 58.76355 66.57579 58.765076 156.328095.007019 312.656372-.113831 468.984131.115661 26.991272.039612 52.80481-17.461181 63.29657-42.647094 5.247803-12.597595 6.093262-25.78357 6.088257-39.174927-.035278-93.995544.005737-187.991089-.035217-281.986633-.024598-56.496582-.225891-112.993164-.168763-169.489594.010498-10.412536-2.100891-20.255188-6.770385-29.384888-13.322632-26.04779-33.791199-41.752868-64.001099-41.772094-156.161255-.099365-312.322693-.0401-468.48407-.032563-1.665924.000092-3.346527-.086181-4.995575.093995-32.657669 3.568161-61.355133 35.636718-61.357834 68.607696-.012207 148.161652-.005127 296.323273-.005844 445.484955"/>
  <path d="M365.49054 327.456909c32.02716-23.727783 67.402587-39.270233 106.306213-45.427856 58.26654-9.222382 113.883667.188598 165.21167 29.485992 61.795654 35.272217 100.063904 88.387543 115.385559 157.959809 4.929382 22.383239 6.950256 45.100341 5.691894 67.878417-2.247497 40.681275-13.75177 78.78595-34.660827 113.90033-26.856751 45.103088-65.609924 75.980774-114.121216 95.057617-27.329468 10.747132-55.665344 16.107056-85.096497 17.217285-46.015258 1.73584-89.806579-6.471252-130.746551-27.556823-51.604004-26.577942-87.636658-67.46045-108.895416-121.474366-12.749207-32.393005-18.638184-66.064392-16.606018-100.661315 3.737457-63.628571 26.056182-119.486847 72.213134-164.745728 7.873444-7.720245 16.168885-14.884491 25.318055-21.633362m-35.213349 95.281006c-13.910339 24.937225-21.176483 51.92981-24.80072 80.056061-.42865 3.326446.597137 5.000213 4.254822 4.950622 8.996185-.121978 18.001892-.24469 26.991119.036927 7.746765.242706 13.779785 3.66922 16.835022 11.159454 5.225403 12.810364-3.747681 25.682922-18.360229 26.166077-7.990082.264282-15.995728.021301-23.992371.139221-5.25116.077515-6.521362 1.640076-5.716583 6.795959 2.156158 13.813233 5.163727 27.419617 9.792053 40.645508 8.115326 23.190308 19.834717 44.321777 35.568512 63.237244 3.030517 3.643371 5.626953 4.556396 9.417328 1.016968 4.252044-3.97052 8.883911-7.535462 13.365173-11.259217 19.470245-16.178955 38.883667-32.427246 58.451935-48.486816 7.267609-5.964478 9.622864-5.690186 16.817963.572388 1.506652 1.31134 2.928497 2.719726 4.406402 4.064758 17.354462 15.794189 38.153229 23.283264 61.214356 22.588562 23.894287-.719788 45.064392-9.403565 62.258972-26.700195 6.608642-6.647828 9.889648-6.708619 17.134949-.694519 22.427368 18.616088 44.747741 37.361206 67.17572 55.976623 10.526672 8.737244 10.498596 8.579163 19.02417-2.328796 22.923156-29.328553 36.272827-62.547974 40.767761-99.420716.737305-6.048034.792114-6.058105-5.409607-6.068847-8.497864-.014649-17.004639.245727-25.491516-.059204-11.548096-.414978-18.668884-8.359925-18.294617-19.865601.344849-10.600281 7.799195-17.508667 18.986023-17.544922 8.664612-.028046 17.330017-.070923 25.993591.028717 3.257386.037415 4.66681-1.308838 4.21991-4.516327-.710205-5.097748-1.283935-10.222717-2.221619-15.279358-7.786377-41.98938-25.584777-79.021454-55.33319-109.897247-23.304322-24.187469-51.187684-41.330566-82.947693-52.169891-14.682434-5.010926-29.674988-8.615692-45.224182-9.632233-3.67035-.23996-4.987671 1.122864-4.92981 4.864441.180359 11.661072.133057 23.327576.025452 34.99057-.07013 7.60141-5.952881 14.872284-13.338257 16.853424-7.601441 2.039093-15.509979-1.449371-19.501099-8.670288-1.975983-3.574982-2.698395-7.476227-2.700867-11.53009-.006439-10.497559-.143402-20.997437.046174-31.491455.0737-4.082306-1.623749-5.421723-5.392182-4.930115-3.1297.408264-6.282532.666839-9.394714 1.177063-32.567841 5.338897-62.366974 17.553009-89.442291 36.364532-4.852967 3.371765-10.146943 6.32132-13.69452 10.998322.222565 1.503357 1.237 1.898102 1.943177 2.569427 8.813202 8.378113 17.839355 16.547028 26.367492 25.206269 9.924164 10.076782 5.321106 27.095764-7.969085 30.249755-7.283325 1.728455-13.471344-.639923-18.672913-5.802368-7.684814-7.627075-15.38681-15.238647-22.953308-22.982086-2.662292-2.724548-4.509766-3.088867-7.066284.292236-6.648438 8.792939-12.595429 18.007325-18.210419 28.329163"/>
  <path d="M586.564636 505.458862c-3.600403 6.803406-6.864136 13.370117-10.498291 19.725037-2.704101 4.728699-3.812866 9.810791-4.79895 15.062622-4.65686 24.801575-23.399353 44.230469-47.27002 49.233215-28.521606 5.977417-57.661529-11.357605-66.166656-39.361694-10.546722-34.726501 7.629517-67.242065 44.624054-77.750458 10.565063-3.001037 18.929077-8.486297 27.207642-14.897217 30.279785-23.448638 60.573364-46.879394 90.869445-70.307067 1.981018-1.531891 4.052307-2.917756 6.573731-3.453949 4.903442-1.042695 9.334778-.266663 12.732055 3.66571 3.323365 3.846741 3.39386 8.404816 1.332947 12.657379-5.806762 11.981812-11.822937 23.866394-17.973877 35.676148-12.073669 23.181396-24.294494 46.286132-36.63208 69.750274m-53.067688 15.676575c-.989074-1.332336-1.878296-2.754578-2.983703-3.982178-6.656311-7.391937-17.481263-10.090698-25.911072-6.524505-10.109833 4.276886-15.351227 13.41513-14.284393 24.904327.832061 8.960327 8.155853 17.100464 17.628265 19.440002 9.180542 2.267457 16.862671-.626098 22.754822-7.667663 6.42041-7.673035 7.887939-16.283081 2.796081-26.169983"/>
</svg>
