<svg id="Layer_1" viewBox="0 0 24 24" xmlns="http://www.w3.org/2000/svg" data-name="Layer 1"><path d="m6 11v3c0 .552.449 1 1 1 .423 0 .802-.268.943-.667.091-.26.377-.397.638-.305.26.092.397.378.305.639-.282.797-1.04 1.333-1.886 1.333-1.103 0-2-.897-2-2v-3c0-1.103.897-2 2-2 .846 0 1.604.536 1.886 1.333.092.261-.044.547-.305.639-.259.093-.546-.045-.638-.305-.141-.399-.52-.667-.943-.667-.551 0-1 .448-1 1zm12.5-2c-.276 0-.5.224-.5.5v4.5c0 .552-.448 1-1 1s-1-.448-1-1v-4.5c0-.276-.224-.5-.5-.5s-.5.224-.5.5v4.5c0 1.103.897 2 2 2s2-.897 2-2v-4.5c0-.276-.224-.5-.5-.5zm-4.5 2c0 1.103-.897 2-2 2h-1v2.5c0 .276-.224.5-.5.5s-.5-.224-.5-.5v-5c0-.827.673-1.5 1.5-1.5h.5c1.103 0 2 .897 2 2zm-1 0c0-.552-.449-1-1-1h-.5c-.276 0-.5.225-.5.5v1.5h1c.551 0 1-.448 1-1zm9-2v2.5h1.5c.276 0 .5.224.5.5s-.224.5-.5.5h-1.5v2.5h1.5c.276 0 .5.224.5.5s-.224.5-.5.5h-1.5v1.5c0 .171-.032.334-.051.5h1.551c.276 0 .5.224.5.5s-.224.5-.5.5h-1.776c-.453 1.271-1.453 2.27-2.724 2.724v1.776c0 .276-.224.5-.5.5s-.5-.224-.5-.5v-1.551c-.166.019-.329.051-.5.051h-1.5v1.5c0 .276-.224.5-.5.5s-.5-.224-.5-.5v-1.5h-2.5v1.5c0 .276-.224.5-.5.5s-.5-.224-.5-.5v-1.5h-2.5v1.5c0 .276-.224.5-.5.5s-.5-.224-.5-.5v-1.5h-1.5c-.171 0-.334-.032-.5-.051v1.551c0 .276-.224.5-.5.5s-.5-.224-.5-.5v-1.776c-1.271-.453-2.27-1.453-2.724-2.724h-1.776c-.276 0-.5-.224-.5-.5s.224-.5.5-.5h1.551c-.019-.166-.051-.329-.051-.5v-1.5h-1.5c-.276 0-.5-.224-.5-.5s.224-.5.5-.5h1.5v-2.5h-1.5c-.276 0-.5-.224-.5-.5s.224-.5.5-.5h1.5v-2.5h-1.5c-.276 0-.5-.224-.5-.5s.224-.5.5-.5h1.5v-1.5c0-.171.032-.334.051-.5h-1.551c-.276 0-.5-.224-.5-.5s.224-.5.5-.5h1.776c.453-1.271 1.453-2.27 2.724-2.724v-1.776c0-.276.224-.5.5-.5s.5.224.5.5v1.551c.166-.019.329-.051.5-.051h1.5v-1.5c0-.276.224-.5.5-.5s.5.224.5.5v1.5h2.5v-1.5c0-.276.224-.5.5-.5s.5.224.5.5v1.5h2.5v-1.5c0-.276.224-.5.5-.5s.5.224.5.5v1.5h1.5c.171 0 .334.032.5.051v-1.551c0-.276.224-.5.5-.5s.5.224.5.5v1.776c1.271.453 2.27 1.453 2.724 2.724h1.776c.276 0 .5.224.5.5s-.224.5-.5.5h-1.551c.019.166.051.329.051.5v1.5h1.5c.276 0 .5.224.5.5s-.224.5-.5.5zm-1 8.5v-11c0-1.93-1.57-3.5-3.5-3.5h-11c-1.93 0-3.5 1.57-3.5 3.5v11c0 1.93 1.57 3.5 3.5 3.5h11c1.93 0 3.5-1.57 3.5-3.5z"/></svg>