<svg xmlns="http://www.w3.org/2000/svg" data-name="Layer 1" viewBox="0 0 24 24">
	<path fill="currentColor"
		d="M12.729 10.985c0 .398-.349.735-.762.735l-.71.003-.005-1.473h.715c.413 0 .762.336.762.735M22 11v2h1a1 1 0 1 1 0 2h-1v2h1a1 1 0 1 1 0 2h-1.424A5.02 5.02 0 0 1 19 21.576V23a1 1 0 1 1-2 0v-1h-2v1a1 1 0 1 1-2 0v-1h-2v1a1 1 0 1 1-2 0v-1H7v1a1 1 0 1 1-2 0v-1.424A5.02 5.02 0 0 1 2.424 19H1a1 1 0 1 1 0-2h1v-2H1a1 1 0 1 1 0-2h1v-2H1a1 1 0 1 1 0-2h1V7H1a1 1 0 1 1 0-2h1.424A5.02 5.02 0 0 1 5 2.424V1a1 1 0 1 1 2 0v1h2V1a1 1 0 1 1 2 0v1h2V1a1 1 0 1 1 2 0v1h2V1a1 1 0 1 1 2 0v1.424A5.02 5.02 0 0 1 21.576 5H23a1 1 0 1 1 0 2h-1v2h1a1 1 0 1 1 0 2zM8.275 13h-.05a.59.59 0 0 0-.536.364.77.77 0 0 1-.689.455.74.74 0 0 1-.749-.751v-2.067c0-.449.358-.751.749-.751.288.005.543.18.668.422a.627.627 0 0 0 1.104-.591 2.02 2.02 0 0 0-1.773-1.08 1.99 1.99 0 0 0-2 1.984v2.099c0 1.094.891 1.985 2 1.985a2.02 2.02 0 0 0 1.841-1.213.615.615 0 0 0-.566-.856zm5.703-2.015c0-1.094-.902-1.985-2.012-1.985h-1.342a.625.625 0 0 0-.625.625v4.819a.625.625 0 0 0 1.25 0v-1.471l.717-.003c1.109 0 2.012-.891 2.012-1.985m5.021-1.36a.625.625 0 0 0-1.25 0v3.443a.744.744 0 0 1-.75.751c-.408-.007-.75-.34-.75-.735V9.625a.625.625 0 0 0-1.25 0v3.459c0 1.09.896 1.977 2 1.984a1.99 1.99 0 0 0 2-1.984z" />
</svg>