<svg xmlns="http://www.w3.org/2000/svg" xml:space="preserve" viewBox="0 0 48 48">
	<path fill="currentColor"
		d="M43 17a1 1 0 0 0 0-2h-2v-2h2a1 1 0 0 0 0-2h-2v-1a3 3 0 0 0-3-3h-1V5a1 1 0 0 0-2 0v2h-2V5a1 1 0 0 0-2 0v2h-2V5a1 1 0 0 0-2 0v2h-2V5a1 1 0 0 0-2 0v2h-2V5a1 1 0 0 0-2 0v2h-2V5a1 1 0 0 0-2 0v2h-2V5a1 1 0 0 0-2 0v2h-1a3 3 0 0 0-3 3v1H5a1 1 0 0 0 0 2h2v2H5a1 1 0 0 0 0 2h2v2H5a1 1 0 0 0 0 2h2v2H5a1 1 0 0 0 0 2h2v2H5a1 1 0 0 0 0 2h2v2H5a1 1 0 0 0 0 2h2v2H5a1 1 0 0 0 0 2h2v1a3 3 0 0 0 3 3h1v2a1 1 0 0 0 2 0v-2h2v2a1 1 0 0 0 2 0v-2h2v2a1 1 0 0 0 2 0v-2h2v2a1 1 0 0 0 2 0v-2h2v2a1 1 0 0 0 2 0v-2h2v2a1 1 0 0 0 2 0v-2h2v2a1 1 0 0 0 2 0v-2h1a3 3 0 0 0 3-3v-1h2a1 1 0 0 0 0-2h-2v-2h2a1 1 0 0 0 0-2h-2v-2h2a1 1 0 0 0 0-2h-2v-2h2a1 1 0 0 0 0-2h-2v-2h2a1 1 0 0 0 0-2h-2v-2zm-5 20a1 1 0 0 1-1 1H11a1 1 0 0 1-1-1V11a1 1 0 0 1 1-1h26a1 1 0 0 1 1 1z" />
	<path fill="currentColor" d="M23.5 22h1v1h-1z" />
	<path fill="currentColor"
		d="M12 12v24h24V12zm6.5 14v-1.5a1 1 0 0 1 2 0V27a1 1 0 0 1-1 1h-3a2 2 0 0 1-2-2v-4a2 2 0 0 1 2-2h3a1 1 0 0 1 0 2h-3v4zm8-2a1 1 0 0 1-1 1h-2v2a1 1 0 0 1-2 0v-6a1 1 0 0 1 1-1h3a1 1 0 0 1 1 1zm7 2a2 2 0 0 1-2 2h-2a2 2 0 0 1-2-2v-5a1 1 0 0 1 2 0v5h2v-5a1 1 0 0 1 2 0z" />
</svg>