<svg xmlns="http://www.w3.org/2000/svg" xml:space="preserve" viewBox="0 0 512 512">
	<path fill="#8fa5a5"
		d="M128 96a10.667 10.667 0 0 1-10.667-10.667v-32a10.667 10.667 0 0 1 21.333 0v32A10.667 10.667 0 0 1 128 96m42.667 0A10.667 10.667 0 0 1 160 85.333v-32a10.667 10.667 0 1 1 21.333 0v32A10.667 10.667 0 0 1 170.667 96m42.666 0a10.667 10.667 0 0 1-10.667-10.667v-32a10.667 10.667 0 1 1 21.333 0v32A10.667 10.667 0 0 1 213.333 96M256 96a10.667 10.667 0 0 1-10.667-10.667v-32a10.667 10.667 0 0 1 21.333 0v32A10.667 10.667 0 0 1 256 96m42.667 0A10.667 10.667 0 0 1 288 85.333v-32a10.667 10.667 0 1 1 21.333 0v32A10.667 10.667 0 0 1 298.667 96m42.666 0a10.667 10.667 0 0 1-10.667-10.667v-32a10.667 10.667 0 1 1 21.333 0v32A10.667 10.667 0 0 1 341.333 96M384 96a10.667 10.667 0 0 1-10.667-10.667v-32a10.667 10.667 0 0 1 21.333 0v32A10.667 10.667 0 0 1 384 96m74.667 42.667h-32a10.667 10.667 0 0 1 0-21.333h32a10.667 10.667 0 0 1 0 21.333m0 42.666h-32a10.667 10.667 0 1 1 0-21.333h32a10.667 10.667 0 0 1 0 21.333m0 42.667h-32a10.667 10.667 0 1 1 0-21.333h32a10.667 10.667 0 0 1 0 21.333m0 42.667h-32a10.667 10.667 0 1 1 0-21.333h32a10.667 10.667 0 0 1 0 21.333m0 42.666h-32a10.667 10.667 0 1 1 0-21.333h32a10.667 10.667 0 0 1 0 21.333m0 42.667h-32a10.667 10.667 0 1 1 0-21.333h32a10.667 10.667 0 0 1 0 21.333m0 42.667h-32a10.667 10.667 0 1 1 0-21.333h32a10.667 10.667 0 0 1 0 21.333" />
	<path fill="#7b8c8c"
		d="M85.333 138.667h-32a10.667 10.667 0 0 1 0-21.333h32a10.667 10.667 0 0 1 0 21.333m0 42.666h-32a10.667 10.667 0 1 1 0-21.333h32a10.667 10.667 0 1 1 0 21.333m0 42.667h-32a10.667 10.667 0 1 1 0-21.333h32a10.667 10.667 0 1 1 0 21.333m0 42.667h-32a10.667 10.667 0 0 1 0-21.333h32a10.667 10.667 0 0 1 0 21.333m0 42.666h-32a10.667 10.667 0 1 1 0-21.333h32a10.667 10.667 0 1 1 0 21.333m0 42.667h-32a10.667 10.667 0 1 1 0-21.333h32a10.667 10.667 0 1 1 0 21.333m0 42.667h-32a10.667 10.667 0 0 1 0-21.333h32a10.667 10.667 0 0 1 0 21.333M128 469.333a10.667 10.667 0 0 1-10.667-10.667v-32a10.667 10.667 0 0 1 21.333 0v32A10.667 10.667 0 0 1 128 469.333m42.667 0A10.667 10.667 0 0 1 160 458.667v-32a10.667 10.667 0 1 1 21.333 0v32a10.667 10.667 0 0 1-10.666 10.666m42.666 0a10.667 10.667 0 0 1-10.667-10.667v-32a10.667 10.667 0 1 1 21.333 0v32a10.667 10.667 0 0 1-10.666 10.667m42.667 0a10.667 10.667 0 0 1-10.667-10.667v-32a10.667 10.667 0 1 1 21.333 0v32A10.667 10.667 0 0 1 256 469.333m42.667 0A10.667 10.667 0 0 1 288 458.667v-32a10.667 10.667 0 1 1 21.333 0v32a10.667 10.667 0 0 1-10.666 10.666m42.666 0a10.667 10.667 0 0 1-10.667-10.667v-32a10.667 10.667 0 1 1 21.333 0v32a10.667 10.667 0 0 1-10.666 10.667m42.667 0a10.667 10.667 0 0 1-10.667-10.667v-32a10.667 10.667 0 1 1 21.333 0v32A10.667 10.667 0 0 1 384 469.333" />
	<rect width="362.667" height="362.667" x="74.667" y="74.667" fill="#2d4a60" rx="32" />
	<path fill="#263f52"
		d="M74.667 405.333a32.035 32.035 0 0 0 32 32h298.666a31.9 31.9 0 0 0 22.617-9.383L84.05 84.05a31.9 31.9 0 0 0-9.383 22.617z" />
	<rect width="277.333" height="277.333" x="117.333" y="117.333" fill="#fac100" rx="10.667" />
	<path fill="#ff9500"
		d="M117.333 384A10.667 10.667 0 0 0 128 394.667h256a10.63 10.63 0 0 0 7.542-3.124L120.458 120.458a10.63 10.63 0 0 0-3.125 7.542z" />
	<path fill="#bac2c6"
		d="M176 298.667h32A10.66 10.66 0 0 0 218.667 288v-26.667a10.667 10.667 0 0 0-21.333 0v16H176v-42.666h32a10.667 10.667 0 0 0 0-21.333h-32a21.36 21.36 0 0 0-21.333 21.333v42.667A21.36 21.36 0 0 0 176 298.667" />
	<path fill="#eaeff0"
		d="M240 298.667A10.66 10.66 0 0 0 250.667 288v-21.333H272A10.664 10.664 0 0 0 282.667 256v-32A10.664 10.664 0 0 0 272 213.333h-32A10.664 10.664 0 0 0 229.333 224v64A10.66 10.66 0 0 0 240 298.667m10.667-64h10.667v10.667h-10.667z" />
	<path fill="#bac2c6" d="M229.333 229.333V288a10.667 10.667 0 0 0 21.333 0v-21.333h16z" />
	<path fill="#eaeff0"
		d="M314.667 298.667H336a21.36 21.36 0 0 0 21.333-21.333V224A10.667 10.667 0 1 0 336 224v53.333h-21.333V224a10.667 10.667 0 0 0-21.333 0v53.333a21.36 21.36 0 0 0 21.333 21.334" />
</svg>