<svg xmlns="http://www.w3.org/2000/svg" xml:space="preserve" viewBox="0 0 512 512">
	<path fill="#9cd3fc"
		d="M477 451H65a30 30 0 0 1-30-30V91a30 30 0 0 1 30-30h412a30 30 0 0 1 30 30v330a30 30 0 0 1-30 30" />
	<path fill="#cde9fe" d="M477 361H35V91a30 30 0 0 1 30-30h412a30 30 0 0 1 30 30v240a30 30 0 0 1-30 30" />
	<path fill="#69bdfb" d="M457 196H337c-11 0-20-9-20-20v-65c0-11 9-20 20-20h120c11 0 20 9 20 20v65c0 11-9 20-20 20" />
	<path fill="#2b6e38" d="M337 331h120c11 0 20-9 20-20v-65c0-11-9-20-20-20H337c-11 0-20 9-20 20v65c0 11 9 20 20 20" />
	<path fill="#ffb234" d="M267 331H55c-11 0-20-9-20-20V111c0-11 9-20 20-20h212c11 0 20 9 20 20v200c0 11-9 20-20 20" />
	<path fill="#69bdfb" d="M267 331H55c-11 0-20-9-20-20V111c0-11 9-20 20-20h212c11 0 20 9 20 20v200c0 11-9 20-20 20" />
	<path fill="#d8d6c1"
		d="M287 158.4V311c0 11-8.9 20-20 20H55a20 20 0 0 1-20-20V143.5s16.3-23 47.9-3.5c0 0 17.3-41.7 55.2-10.3 0 0 30.3-43.9 59 1.1 0 0 32.3-27 45.5 12.7-.1 0 29.2-17.9 44.4 14.9" />
	<path fill="#ebebdf"
		d="M99.2 272c-27.3-27.3-39.2-74-17.7-95.5s68.1-9.7 95.5 17.7 25 59.8 3.5 81.3-54 23.8-81.3-3.5" />
	<ellipse cx="138.1" cy="233.1" fill="#ffc96f" rx="30" ry="35" transform="rotate(135 138 233)" />
	<path fill="#db3529" d="M452 171q-.1 13.6-6 25h-98a55.2 55.2 0 0 1 49-80 55 55 0 0 1 55 55" />
	<g fill="#399349">
		<path
			d="M343.7 331s22.4-50.6-10.1-71.6c0 0 5-12.1 17.4-5.9 0 0 2.5-9.8 15.7-10.6s14.6 10.6 14.6 10.6 11.5-8.1 20.5 2 1.4 18.9 1.4 18.9 13.2 1 13.2 15c0 0-34.8-3.7-44.8 41.6" />
		<path
			d="M477 269.2V311c0 11-8.9 20-20 20h-10.5c-.6-40-30.5-45.3-30.5-45.3s8.4-24.6 27.9-11.4c0 0 11.4-23.5 33.1-5.1" />
	</g>
	<path fill="#272526"
		d="M477 456H35a35 35 0 0 1-35-35V91a35 35 0 0 1 35-35h442a35 35 0 0 1 35 35v330a35 35 0 0 1-35 35M35 66a25 25 0 0 0-25 25v330a25 25 0 0 0 25 25h442a25 25 0 0 0 25-25V91a25 25 0 0 0-25-25z" />
	<path fill="#272526"
		d="M477 366H35a35 35 0 0 1-35-35h10a25 25 0 0 0 25 25h442a25 25 0 0 0 25-25h10a35 35 0 0 1-35 35m-20-165H337a25 25 0 0 1-25-25v-65a25 25 0 0 1 25-25h120a25 25 0 0 1 25 25v65a25 25 0 0 1-25 25M337 96a15 15 0 0 0-15 15v65a15 15 0 0 0 15 15h120a15 15 0 0 0 15-15v-65a15 15 0 0 0-15-15z" />
	<path fill="#272526"
		d="M457 336H337a25 25 0 0 1-25-25v-65a25 25 0 0 1 25-25h120a25 25 0 0 1 25 25v65a25 25 0 0 1-25 25M337 231a15 15 0 0 0-15 15v65a15 15 0 0 0 15 15h120a15 15 0 0 0 15-15v-65a15 15 0 0 0-15-15zm-70 105H55a25 25 0 0 1-25-25V111a25 25 0 0 1 25-25h212a25 25 0 0 1 25 25v200a25 25 0 0 1-25 25M55 96a15 15 0 0 0-15 15v200a15 15 0 0 0 15 15h212a15 15 0 0 0 15-15V111a15 15 0 0 0-15-15z" />
	<path fill="#272526"
		d="M267 336H55a25 25 0 0 1-25-25V111a25 25 0 0 1 25-25h212a25 25 0 0 1 25 25v200a25 25 0 0 1-25 25M55 96a15 15 0 0 0-15 15v200a15 15 0 0 0 15 15h212a15 15 0 0 0 15-15V111a15 15 0 0 0-15-15z" />
	<path fill="#272526"
		d="M142.6 297h-.6a67 67 0 0 1-46.3-21.5 107 107 0 0 1-28.5-52.4c-4.4-21-.5-38.8 10.8-50.1s29.1-15.2 50.1-10.8a107 107 0 0 1 52.4 28.5A66 66 0 0 1 202 237a59 59 0 0 1-18 42.1 59 59 0 0 1-41.4 17.9m-30.7-126.7c-10.6 0-20.1 3-26.9 9.7-8.9 8.9-11.8 23.4-8.1 41a98 98 0 0 0 25.8 47.4c12 12 25.6 18.5 39.4 18.6h.5c12.5 0 24.7-5.3 34.4-15.1a49 49 0 0 0 15.1-34.9 57 57 0 0 0-18.6-39.4 95 95 0 0 0-61.6-27.3" />
	<path fill="#272526"
		d="m143.1 270.7-2.9-.1a44 44 0 0 1-26.9-12.7c-15.6-15.6-17.2-39.4-3.5-53 6.7-6.7 16-10 26.2-9.2 9.9.8 19.4 5.3 26.9 12.7 15.6 15.6 17.2 39.4 3.5 53-6.1 6-14.3 9.3-23.3 9.3m-22.7-20a33 33 0 0 0 20.6 9.8c7.2.6 13.7-1.7 18.3-6.3 9.7-9.7 8.2-27.2-3.5-38.9a33 33 0 0 0-20.6-9.8 23 23 0 0 0-18.3 6.3c-9.8 9.8-8.2 27.3 3.5 38.9m162.1-90.2q-6-13-15.9-15.9c-10.5-3.2-21.4 3.2-21.5 3.2q-2 1.3-4.3.4a5 5 0 0 1-3-3.1q-5-15-14.2-17.7c-10.8-3.1-23.2 7.1-23.4 7.2q-1.8 1.4-4 1.1c-2.2-.3-2.7-1-3.4-2.2q-11.3-17.7-23.9-18h-.4c-14.4 0-26.2 16.9-26.4 17q-1.3 1.8-3.4 2.1c-2.1.3-2.8-.2-3.9-1.1q-15.7-13-28.1-10c-12.7 3.1-19.2 18.2-19.3 18.4a5 5 0 0 1-7.3 2.3q-14-8.6-25.6-6.8l-1.6-9.9q13.2-2 27.8 5.5a40 40 0 0 1 23.5-19.2q15.5-3.8 32.9 8.8c5.4-6.2 16.9-17.2 31.3-17.2h.5q16 .3 29.3 18.3c6-3.8 17-9.1 28-6q12.3 3.5 19 18.9a37 37 0 0 1 24.2-1.7q14.1 4.3 22 21.3zM446 201h-98a5 5 0 0 1-4.5-2.7 60 60 0 1 1 107 0 5 5 0 0 1-4.5 2.7m-94.8-10h91.7q4.2-9.5 4.2-20a50 50 0 1 0-95.9 20" />
	<path fill="#272526"
		d="m414.2 89.5 9.5 3-15.9 52.5-9.6-3zm-37.8 242.6-9.8-2.2c5.6-25.4 18.8-36.4 28.9-41.2 5.6-2.7 11-3.8 14.9-4.2a9 9 0 0 0-7.6-5.1 5 5 0 0 1-4.3-3.1q-1-2.7.8-5.2c.7-.9 4.3-6-1.3-12.4-5.6-6.3-12.5-2.1-13.9-1.2a5 5 0 0 1-4.9.4 5 5 0 0 1-2.9-3.9c-.2-1.5-1.6-6.8-9.3-6.3-9 .6-11 6.3-11.2 7q-.5 2.3-2.7 3.3c-2.2 1-3 .5-4.4-.2q-3.8-1.8-6.3-.9-1.1.4-1.9 1.2c13.8 11.4 18.6 29.8 14.1 53.7l-9.8-1.9c2.9-15.2 2.9-35.6-13.9-46.5a5 5 0 0 1-1.9-6.1c.3-.7 3.2-7.2 10-9.8 2.2-.8 5.5-1.4 9.5-.4 2.6-3.9 7.9-8.8 17.8-9.4a18 18 0 0 1 17.7 8.7 19 19 0 0 1 21.4 5.6 19 19 0 0 1 4.8 19.1c5.5 2.5 11 8 11 18.1q0 2.2-1.7 3.7c-1.7 1.5-2.5 1.4-3.9 1.3-1 0-30.4-2.2-39.2 37.9M244 305.8c-.1-.6-3.7-15.1-16.4-15.1-15.9 0-17.9 14-18 14.6l-9.9-1.3a27 27 0 0 1 27.9-23.3c16.6 0 24.3 15 26.1 22.9z" />
	<path fill="#272526"
		d="m232.6 285.9-10-.4c.3-8.6 6.1-24.8 26.3-24.8s25.6 16.2 25.6 25.2h-10 5l-5-.1c0-2.5-.9-15.2-15.6-15.2-15.2.1-16.2 13.8-16.3 15.3m208.9 45.2c-.5-35.4-26.1-40.4-26.4-40.4q-2.2-.5-3.4-2.4c-1.2-1.9-.9-2.8-.4-4.2s5.1-14.1 15.9-17.7q7.2-2.4 15.1 1.3c2.8-3.7 7.7-8.5 14.6-10q11.3-2.4 23.3 7.7l-6.5 7.6q-8.2-7-14.7-5.6c-6.7 1.4-10.6 9-10.6 9.1a5 5 0 0 1-3.2 2.6 5 5 0 0 1-4.1-.7q-6.2-4-10.7-2.6c-3.2 1.1-5.7 4.1-7.4 6.9 3.2 1.3 7.2 3.4 11.2 6.8 7.7 6.4 16.9 18.8 17.3 41.4z" />
</svg>