<svg xmlns="http://www.w3.org/2000/svg" xml:space="preserve" viewBox="0 0 511.848 511.848">
	<path fill="#71c285"
		d="M393.249 68.663c6.907 6.866 18.062 6.866 24.968 0l24.968 24.968c-6.895 6.895-6.895 18.073 0 24.968s18.073 6.895 24.968 0l43.694 43.694-349.554 349.555-43.694-43.694c6.895-6.895 6.895-18.073 0-24.968s-18.073-6.895-24.968 0l-24.968-24.968c6.895-6.895 6.895-18.073 0-24.968s-18.073-6.895-24.968 0L0 349.555 349.555 0l43.694 43.694c-6.866 6.907-6.866 18.062 0 24.969" />
	<path fill="#4c8056"
		d="M49.976 358.411a8.82 8.82 0 0 1-6.268-2.647 8.545 8.545 0 0 1-2.56-6.181 8.739 8.739 0 0 1 2.56-6.268 8.653 8.653 0 0 1 12.444 0 7.671 7.671 0 0 1 1.944 2.823 9.643 9.643 0 0 1 .707 3.444 8.816 8.816 0 0 1-.707 3.354 7.73 7.73 0 0 1-1.944 2.828 8.614 8.614 0 0 1-6.176 2.647M349.584 58.803a8.807 8.807 0 0 1-6.268-2.651 8.53 8.53 0 0 1-2.56-6.177 8.739 8.739 0 0 1 2.56-6.268 9.038 9.038 0 0 1 12.448 0 8.823 8.823 0 0 1 2.647 6.268 9.052 9.052 0 0 1-8.827 8.828" />
	<path fill="#5e5f62"
		d="m87.353 349.569 18.726-18.726a8.828 8.828 0 0 1 12.484 0L168.5 380.78a8.828 8.828 0 0 1 0 12.484l-18.726 18.726a8.828 8.828 0 0 1-12.484 0l-49.937-49.937a8.828 8.828 0 0 1 0-12.484m56.252-56.166 18.726-18.726a8.828 8.828 0 0 1 12.484 0l49.937 49.937a8.828 8.828 0 0 1 0 12.484l-18.726 18.726a8.828 8.828 0 0 1-12.484 0l-49.937-49.937a8.826 8.826 0 0 1 0-12.484m56.143-56.197 18.726-18.726a8.828 8.828 0 0 1 12.484 0l49.937 49.937a8.828 8.828 0 0 1 0 12.484l-18.726 18.726a8.828 8.828 0 0 1-12.484 0l-49.937-49.937a8.828 8.828 0 0 1 0-12.484" />
	<path fill="#ecf0f1"
		d="m411.996 149.816-12.447 12.447-12.535 12.535-12.447 12.447-12.535 12.535-12.447 12.447-31.25 31.25a8.79 8.79 0 0 1-12.446 0l-49.964-49.964a8.897 8.897 0 0 1 0-12.535l93.661-93.572a8.79 8.79 0 0 1 12.446 0l49.964 49.876a8.896 8.896 0 0 1 0 12.534" />
	<path fill="#5e5f62"
		d="m399.549 162.263-12.535 12.535-12.447-12.535a8.636 8.636 0 0 1 0-12.446 8.79 8.79 0 0 1 12.446 0zm-24.982 24.982-12.535 12.535-12.447-12.535a8.801 8.801 0 1 1 12.446-12.446zm-24.982 24.983-12.535 12.535-12.447-12.535a8.801 8.801 0 1 1 12.446-12.446z" />
	<path fill="#a5a5a4"
		d="M305.859 189.847a8.829 8.829 0 0 1-6.241-15.069l24.97-24.966a8.827 8.827 0 1 1 12.482 12.482L312.1 187.26a8.796 8.796 0 0 1-6.241 2.587m49.906-49.919a8.804 8.804 0 0 1-6.182-15.095 8.935 8.935 0 0 1 12.448 0 8.923 8.923 0 0 1 1.94 2.823 9.423 9.423 0 0 1 .621 3.444 8.893 8.893 0 0 1-2.56 6.268 9.28 9.28 0 0 1-6.267 2.56" />
	<path fill="#b19046"
		d="m187.22876884 486.85814996-24.96750466 24.96837622-24.96837622-24.96750467 24.96750467-24.96837621z" />
	<path fill="#e4c05c"
		d="M486.84109485 187.23003063 187.23952398 486.84205975 162.27044065 461.873848l299.60157087-299.61202912z" />
	<path fill="#b19046"
		d="m511.8158191 162.28385716-24.9611408 24.96201214-24.96201214-24.96114082 24.96114082-24.96201214z" />
</svg>