<svg xmlns="http://www.w3.org/2000/svg" xml:space="preserve" viewBox="0 0 511.85 511.85">
	<path
		d="m509.35 159.383-24.125-24.125-.009-.013-.013-.009-18.092-18.092a8.529 8.529 0 0 0-12.066 0 8.535 8.535 0 0 1-12.067-12.071 8.529 8.529 0 0 0 0-12.066L418.841 68.87a8.529 8.529 0 0 0-12.066 0 8.805 8.805 0 0 1-12.071 0 8.546 8.546 0 0 1 0-12.067 8.529 8.529 0 0 0 0-12.066L352.467 2.5a8.529 8.529 0 0 0-12.067 0L2.5 340.4a8.529 8.529 0 0 0 0 12.066l42.237 42.237a8.529 8.529 0 0 0 12.066 0 8.535 8.535 0 0 1 12.067 12.071 8.529 8.529 0 0 0 0 12.066l24.137 24.137a8.529 8.529 0 0 0 12.066 0 8.805 8.805 0 0 1 12.071 0 8.546 8.546 0 0 1 0 12.067 8.529 8.529 0 0 0 0 12.066l18.092 18.092.008.013.013.008 24.125 24.125a8.529 8.529 0 0 0 12.066 0l337.9-337.9a8.529 8.529 0 0 0 .002-12.065M134.213 460.046a25.602 25.602 0 0 0-34.138-34.133l-14.138-14.138a25.603 25.603 0 0 0-34.133-34.138L20.6 346.433 346.434 20.6l31.204 31.204a25.602 25.602 0 0 0 34.138 34.133l14.138 14.138a25.603 25.603 0 0 0 34.133 34.138l7.069 7.069-325.835 325.833zm31.204 31.204-12.069-12.069 12.068-12.068 12.068 12.07zm24.134-24.134-12.068-12.07 277.564-277.564 12.07 12.068zm289.632-289.632-12.07-12.068 12.068-12.068 12.069 12.069z" />
	<path
		d="M62.813 340.404a8.367 8.367 0 0 0-12.03 0 8.45 8.45 0 0 0-2.475 6.059 8.262 8.262 0 0 0 2.475 5.975 8.523 8.523 0 0 0 6.059 2.558 8.325 8.325 0 0 0 5.971-2.558 7.47 7.47 0 0 0 1.879-2.733 8.508 8.508 0 0 0 .683-3.242 9.32 9.32 0 0 0-.683-3.329 7.419 7.419 0 0 0-1.879-2.73m283.65-275.029a8.75 8.75 0 0 0 8.533-8.533 8.529 8.529 0 0 0-2.558-6.059 8.737 8.737 0 0 0-12.033 0 8.45 8.45 0 0 0-2.475 6.059 8.248 8.248 0 0 0 2.475 5.971 8.511 8.511 0 0 0 6.058 2.562M129.213 322.3c-6.667-6.662-17.471-6.662-24.138 0l-18.1 18.1c-6.654 6.67-6.654 17.467 0 24.138l48.271 48.271a17.062 17.062 0 0 0 24.134 0l18.104-18.104a17.062 17.062 0 0 0 0-24.134zm36.208 60.333-.004.004-18.104 18.104-48.271-48.275 18.104-18.1 48.279 48.258zm18.092-114.646c-6.67-6.649-17.462-6.647-24.129.004l-18.104 18.104c-6.654 6.668-6.654 17.465 0 24.133l48.27 48.272c6.669 6.656 17.468 6.656 24.137 0l18.1-18.1a17.062 17.062 0 0 0 0-24.134zm18.104 78.446-48.271-48.271 18.104-18.104 48.279 48.267zm36.208-132.741c-6.75-6.455-17.385-6.457-24.138-.004l-18.096 18.1a17.062 17.062 0 0 0-.004 24.138l48.271 48.271c6.668 6.656 17.466 6.656 24.133 0l18.104-18.1.004-.004c6.647-6.672 6.645-17.464-.004-24.133zm18.1 78.437-48.271-48.271 18.1-18.104 48.279 48.271zM364.537 86.975c-6.669-6.656-17.468-6.656-24.137 0l-90.508 90.508a17.062 17.062 0 0 0 0 24.134l48.275 48.279c6.672 6.646 17.463 6.644 24.133-.004l90.508-90.513a17.062 17.062 0 0 0 0-24.134zm36.209 60.333-.004.004-12.071 12.071-6.033-6.033a8.534 8.534 0 0 0-12.067 12.067l6.033 6.033-12.068 12.068-6.036-6.034a8.532 8.532 0 1 0-12.067 12.067l6.036 6.034-12.07 12.07-6.033-6.033a8.533 8.533 0 0 0-12.067 12.067l6.033 6.033-18.104 18.104-48.271-48.275 90.513-90.508 48.279 48.258z" />
	<path
		d="m322.3 153.35-24.137 24.133a8.532 8.532 0 1 0 12.067 12.067l24.137-24.133A8.533 8.533 0 0 0 322.3 153.35m21.604-18.088a8.592 8.592 0 0 0 8.533 8.533 8.979 8.979 0 0 0 6.059-2.475 8.6 8.6 0 0 0 2.475-6.059 9.102 9.102 0 0 0-.6-3.329 8.635 8.635 0 0 0-1.875-2.729 8.638 8.638 0 0 0-12.033 0 8.681 8.681 0 0 0-2.559 6.059" />
</svg>