<svg xmlns="http://www.w3.org/2000/svg" xml:space="preserve" viewBox="0 0 512 512">
	<path fill="#fac600"
		d="m1 205.132-1 1v30.39a5.15 5.15 0 0 0 5.151 5.151H222.32a5.15 5.15 0 0 0 4.683-3.007l14.895-32.534-.898-1zm509 0H271l-.898 1 14.895 32.534a5.152 5.152 0 0 0 4.683 3.007h217.169a5.15 5.15 0 0 0 5.151-5.151v-30.39z" />
	<path fill="#d7aa02"
		d="M302.358 221.811a7.5 7.5 0 0 0-7.5 7.5v12.362h15v-12.362a7.5 7.5 0 0 0-7.5-7.5m30.906 0a7.5 7.5 0 0 0-7.5 7.5v12.362h15v-12.362a7.5 7.5 0 0 0-7.5-7.5m30.905 0a7.5 7.5 0 0 0-7.5 7.5v12.362h15v-12.362a7.5 7.5 0 0 0-7.5-7.5m30.906 0a7.5 7.5 0 0 0-7.5 7.5v12.362h15v-12.362a7.5 7.5 0 0 0-7.5-7.5m30.905 0a7.5 7.5 0 0 0-7.5 7.5v12.362h15v-12.362a7.5 7.5 0 0 0-7.5-7.5m30.905 0a7.5 7.5 0 0 0-7.5 7.5v12.362h15v-12.362a7.5 7.5 0 0 0-7.5-7.5m30.906 0a7.5 7.5 0 0 0-7.5 7.5v12.362h15v-12.362a7.5 7.5 0 0 0-7.5-7.5" />
	<path fill="#e8b800"
		d="M62.326 236.522v-30.39H0v30.39a5.15 5.15 0 0 0 5.151 5.151h62.326a5.15 5.15 0 0 1-5.151-5.151" />
	<path fill="#08b865"
		d="M512 113.335V77.359a5.15 5.15 0 0 0-5.151-5.151H5.151A5.152 5.152 0 0 0 0 77.359v35.976c0 2.495 1.786 4.656 4.247 5.065 12.203 2.025 21.507 12.629 21.507 25.406s-9.304 23.381-21.507 25.406C1.786 169.621 0 171.781 0 174.277v31.855h512v-31.855c0-2.495-1.786-4.656-4.247-5.065-12.203-2.025-21.507-12.629-21.507-25.406s9.304-23.381 21.507-25.406c2.461-.408 4.247-2.569 4.247-5.065" />
	<path fill="#09a755"
		d="M54.6 174.712a3.091 3.091 0 0 1-3.091-3.091V106.72a3.091 3.091 0 0 1 3.091-3.091h7.726V77.36a5.15 5.15 0 0 1 5.151-5.151H5.151A5.15 5.15 0 0 0 0 77.36v35.976c0 2.496 1.786 4.656 4.247 5.065 12.203 2.025 21.507 12.629 21.507 25.406s-9.304 23.381-21.507 25.406C1.786 169.621 0 171.781 0 174.277v31.855h62.326v-31.421H54.6z" />
	<path fill="#596c76"
		d="M267.237 174.712H231.79a3.091 3.091 0 0 1-3.091-3.091V106.72a3.091 3.091 0 0 1 3.091-3.091h35.447a3.091 3.091 0 0 1 3.091 3.091v64.901a3.091 3.091 0 0 1-3.091 3.091" />
	<path fill="#465a61"
		d="M246.728 171.621V106.72a3.091 3.091 0 0 1 3.091-3.091h-18.028a3.091 3.091 0 0 0-3.091 3.091v64.901a3.091 3.091 0 0 0 3.091 3.091h18.028a3.091 3.091 0 0 1-3.091-3.091" />
	<path fill="#596c76"
		d="M188.523 174.712H54.6a3.091 3.091 0 0 1-3.091-3.091V106.72a3.091 3.091 0 0 1 3.091-3.091h133.924a3.091 3.091 0 0 1 3.091 3.091v64.901a3.093 3.093 0 0 1-3.092 3.091" />
	<path fill="#465a61"
		d="M82.93 171.621V106.72a3.091 3.091 0 0 1 3.091-3.091H54.6a3.091 3.091 0 0 0-3.091 3.091v64.901a3.091 3.091 0 0 0 3.091 3.091h31.42a3.09 3.09 0 0 1-3.09-3.091" />
	<path fill="#596c76"
		d="M330.625 174.712h-35.447a3.091 3.091 0 0 1-3.091-3.091V106.72a3.091 3.091 0 0 1 3.091-3.091h35.447a3.091 3.091 0 0 1 3.091 3.091v64.901a3.091 3.091 0 0 1-3.091 3.091" />
	<path fill="#465a61"
		d="M310.116 171.621V106.72a3.091 3.091 0 0 1 3.091-3.091h-18.028a3.091 3.091 0 0 0-3.091 3.091v64.901a3.091 3.091 0 0 0 3.091 3.091h18.028a3.091 3.091 0 0 1-3.091-3.091" />
	<path fill="#596c76"
		d="M394.013 174.712h-35.447a3.091 3.091 0 0 1-3.091-3.091V106.72a3.091 3.091 0 0 1 3.091-3.091h35.447a3.091 3.091 0 0 1 3.091 3.091v64.901a3.092 3.092 0 0 1-3.091 3.091" />
	<path fill="#465a61"
		d="M373.504 171.621V106.72a3.091 3.091 0 0 1 3.091-3.091h-18.028a3.091 3.091 0 0 0-3.091 3.091v64.901a3.091 3.091 0 0 0 3.091 3.091h18.028a3.09 3.09 0 0 1-3.091-3.091" />
	<path fill="#596c76"
		d="M457.4 174.712h-35.447a3.091 3.091 0 0 1-3.091-3.091V106.72a3.091 3.091 0 0 1 3.091-3.091H457.4a3.091 3.091 0 0 1 3.091 3.091v64.901a3.091 3.091 0 0 1-3.091 3.091" />
	<path fill="#465a61"
		d="M436.891 171.621V106.72a3.091 3.091 0 0 1 3.091-3.091h-18.028a3.091 3.091 0 0 0-3.091 3.091v64.901a3.091 3.091 0 0 0 3.091 3.091h18.028a3.091 3.091 0 0 1-3.091-3.091" />
	<path fill="#d7aa02"
		d="M24.209 221.811a7.5 7.5 0 0 0-7.5 7.5v12.362h15v-12.362a7.5 7.5 0 0 0-7.5-7.5m30.906 0a7.5 7.5 0 0 0-7.5 7.5v12.362h15v-12.362a7.5 7.5 0 0 0-7.5-7.5m30.905 0a7.5 7.5 0 0 0-7.5 7.5v12.362h15v-12.362a7.5 7.5 0 0 0-7.5-7.5m30.906 0a7.5 7.5 0 0 0-7.5 7.5v12.362h15v-12.362a7.5 7.5 0 0 0-7.5-7.5m30.905 0a7.5 7.5 0 0 0-7.5 7.5v12.362h15v-12.362a7.5 7.5 0 0 0-7.5-7.5m30.905 0a7.5 7.5 0 0 0-7.5 7.5v12.362h15v-12.362a7.5 7.5 0 0 0-7.5-7.5m30.906 0a7.5 7.5 0 0 0-7.5 7.5v12.362h15v-12.362a7.5 7.5 0 0 0-7.5-7.5" />
	<circle cx="23.179" cy="95.903" r="7.5" fill="#d7aa02" />
	<circle cx="488.821" cy="95.903" r="7.5" fill="#d7aa02" />
	<circle cx="23.179" cy="186.559" r="7.5" fill="#d7aa02" />
	<circle cx="488.821" cy="186.559" r="7.5" fill="#d7aa02" />
	<path fill="#fac600"
		d="m1 403.25-1 1v30.39a5.15 5.15 0 0 0 5.151 5.151H222.32a5.15 5.15 0 0 0 4.683-3.007l14.895-32.534-.898-1zm509 0H271l-.898 1 14.895 32.534a5.152 5.152 0 0 0 4.683 3.007h217.169A5.15 5.15 0 0 0 512 434.64v-30.39z" />
	<path fill="#d7aa02"
		d="M302.358 419.929a7.5 7.5 0 0 0-7.5 7.5v12.362h15v-12.362a7.5 7.5 0 0 0-7.5-7.5m30.906 0a7.5 7.5 0 0 0-7.5 7.5v12.362h15v-12.362a7.5 7.5 0 0 0-7.5-7.5m30.905 0a7.5 7.5 0 0 0-7.5 7.5v12.362h15v-12.362a7.5 7.5 0 0 0-7.5-7.5m30.906 0a7.5 7.5 0 0 0-7.5 7.5v12.362h15v-12.362a7.5 7.5 0 0 0-7.5-7.5m30.905 0a7.5 7.5 0 0 0-7.5 7.5v12.362h15v-12.362a7.5 7.5 0 0 0-7.5-7.5m30.905 0a7.5 7.5 0 0 0-7.5 7.5v12.362h15v-12.362a7.5 7.5 0 0 0-7.5-7.5m30.906 0a7.5 7.5 0 0 0-7.5 7.5v12.362h15v-12.362a7.5 7.5 0 0 0-7.5-7.5" />
	<path fill="#e8b800"
		d="M62.326 434.641v-30.39H0v30.39a5.15 5.15 0 0 0 5.151 5.151h62.326a5.152 5.152 0 0 1-5.151-5.151" />
	<path fill="#08b865"
		d="M512 311.454v-35.976a5.15 5.15 0 0 0-5.151-5.151H5.151A5.15 5.15 0 0 0 0 275.478v35.976c0 2.495 1.786 4.656 4.247 5.065 12.203 2.025 21.507 12.629 21.507 25.406s-9.304 23.381-21.507 25.406C1.786 367.739 0 369.9 0 372.395v31.855h512v-31.855c0-2.495-1.786-4.656-4.247-5.065-12.203-2.025-21.507-12.629-21.507-25.406s9.304-23.381 21.507-25.406c2.461-.408 4.247-2.569 4.247-5.064" />
	<path fill="#09a755"
		d="M54.6 372.83a3.091 3.091 0 0 1-3.091-3.091v-64.901a3.091 3.091 0 0 1 3.091-3.091h7.726v-26.27a5.15 5.15 0 0 1 5.151-5.151H5.151A5.15 5.15 0 0 0 0 275.477v35.976c0 2.496 1.786 4.656 4.247 5.065 12.203 2.025 21.507 12.629 21.507 25.406S16.45 365.305 4.247 367.33C1.786 367.739 0 369.9 0 372.395v31.855h62.326v-31.42z" />
	<path fill="#596c76"
		d="M267.237 372.83H231.79a3.091 3.091 0 0 1-3.091-3.091v-64.901a3.091 3.091 0 0 1 3.091-3.091h35.447a3.091 3.091 0 0 1 3.091 3.091v64.901a3.091 3.091 0 0 1-3.091 3.091" />
	<path fill="#465a61"
		d="M246.728 369.739v-64.901a3.091 3.091 0 0 1 3.091-3.091h-18.028a3.091 3.091 0 0 0-3.091 3.091v64.901a3.091 3.091 0 0 0 3.091 3.091h18.028a3.091 3.091 0 0 1-3.091-3.091" />
	<path fill="#596c76"
		d="M188.523 372.83H54.6a3.091 3.091 0 0 1-3.091-3.091v-64.901a3.091 3.091 0 0 1 3.091-3.091h133.924a3.091 3.091 0 0 1 3.091 3.091v64.901a3.093 3.093 0 0 1-3.092 3.091" />
	<path fill="#465a61"
		d="M82.93 369.739v-64.901a3.091 3.091 0 0 1 3.091-3.091H54.6a3.091 3.091 0 0 0-3.091 3.091v64.901a3.091 3.091 0 0 0 3.091 3.091h31.42a3.09 3.09 0 0 1-3.09-3.091" />
	<path fill="#596c76"
		d="M330.625 372.83h-35.447a3.091 3.091 0 0 1-3.091-3.091v-64.901a3.091 3.091 0 0 1 3.091-3.091h35.447a3.091 3.091 0 0 1 3.091 3.091v64.901a3.091 3.091 0 0 1-3.091 3.091" />
	<path fill="#465a61"
		d="M310.116 369.739v-64.901a3.091 3.091 0 0 1 3.091-3.091h-18.028a3.091 3.091 0 0 0-3.091 3.091v64.901a3.091 3.091 0 0 0 3.091 3.091h18.028a3.091 3.091 0 0 1-3.091-3.091" />
	<path fill="#596c76"
		d="M394.013 372.83h-35.447a3.091 3.091 0 0 1-3.091-3.091v-64.901a3.091 3.091 0 0 1 3.091-3.091h35.447a3.091 3.091 0 0 1 3.091 3.091v64.901a3.092 3.092 0 0 1-3.091 3.091" />
	<path fill="#465a61"
		d="M373.504 369.739v-64.901a3.091 3.091 0 0 1 3.091-3.091h-18.028a3.091 3.091 0 0 0-3.091 3.091v64.901a3.091 3.091 0 0 0 3.091 3.091h18.028a3.09 3.09 0 0 1-3.091-3.091" />
	<path fill="#596c76"
		d="M457.4 372.83h-35.447a3.091 3.091 0 0 1-3.091-3.091v-64.901a3.091 3.091 0 0 1 3.091-3.091H457.4a3.091 3.091 0 0 1 3.091 3.091v64.901a3.091 3.091 0 0 1-3.091 3.091" />
	<path fill="#465a61"
		d="M436.891 369.739v-64.901a3.091 3.091 0 0 1 3.091-3.091h-18.028a3.091 3.091 0 0 0-3.091 3.091v64.901a3.091 3.091 0 0 0 3.091 3.091h18.028a3.091 3.091 0 0 1-3.091-3.091" />
	<path fill="#d7aa02"
		d="M24.209 419.929a7.5 7.5 0 0 0-7.5 7.5v12.362h15v-12.362a7.5 7.5 0 0 0-7.5-7.5m30.906 0a7.5 7.5 0 0 0-7.5 7.5v12.362h15v-12.362a7.5 7.5 0 0 0-7.5-7.5m30.905 0a7.5 7.5 0 0 0-7.5 7.5v12.362h15v-12.362a7.5 7.5 0 0 0-7.5-7.5m30.906 0a7.5 7.5 0 0 0-7.5 7.5v12.362h15v-12.362a7.5 7.5 0 0 0-7.5-7.5m30.905 0a7.5 7.5 0 0 0-7.5 7.5v12.362h15v-12.362a7.5 7.5 0 0 0-7.5-7.5m30.905 0a7.5 7.5 0 0 0-7.5 7.5v12.362h15v-12.362a7.5 7.5 0 0 0-7.5-7.5m30.906 0a7.5 7.5 0 0 0-7.5 7.5v12.362h15v-12.362a7.5 7.5 0 0 0-7.5-7.5" />
	<circle cx="23.179" cy="294.021" r="7.5" fill="#d7aa02" />
	<circle cx="488.821" cy="294.021" r="7.5" fill="#d7aa02" />
	<circle cx="23.179" cy="384.677" r="7.5" fill="#d7aa02" />
	<circle cx="488.821" cy="384.677" r="7.5" fill="#d7aa02" />
</svg>