<svg xmlns="http://www.w3.org/2000/svg" xml:space="preserve" viewBox="0 0 512 512">
	<path fill="#41a4e8" d="M288 112h88v32h-88z" />
	<path fill="#1783cf" d="M392 184h56v168h-56z" />
	<path fill="#a56a30" d="M160 216h-16v-44a40 40 0 0 0-12-28l-10-10 12-12 10 10a56 56 0 0 1 16 40z" />
	<path fill="#e03f36"
		d="m216 352 23-37a112 112 0 0 0 17-59v-23a61 61 0 0 0-18-43 48 48 0 0 0-34-14 48 48 0 0 0-34 14l-18 18-18-18a48 48 0 0 0-34-14 48 48 0 0 0-34 14 61 61 0 0 0-18 43v23a112 112 0 0 0 17 59l23 37z" />
	<path fill="#d45815" d="m464 352-16 48H64l-16-48z" />
	<path fill="#41a4e8" d="M256 184h136v168H256z" />
	<path fill="#c6cbcf" d="M376 144h40l32 40h-56z" />
	<path fill="#edf0f2" d="M392 184H256l32-40h88z" />
	<path fill="#f5eac3" d="m88 352 152-136v136z" />
	<path fill="#ebd9b2" d="M240 216h88v136h-88z" />
	<path fill="#9aca3c"
		d="M283 240a14 14 0 0 1-1 14l-1 2a30 30 0 0 0 0 32 14 14 0 0 1 0 16l-1 1a30 30 0 0 0-2 30l9 17h18l-12-24a14 14 0 0 1 1-14l1-2a30 30 0 0 0 0-32 14 14 0 0 1 0-16l1-1a30 30 0 0 0 2-30l-9-17h-18z" />
	<path fill="#f27d22" d="M16 344h480v16H16z" />
	<path fill="#1783cf" d="M376 112h40v32h-40z" />
</svg>