<svg xmlns="http://www.w3.org/2000/svg" xml:space="preserve" viewBox="0 0 512 512">
	<path fill="#fe646f" d="m151 252-15 1c36 7 62 49 58 97-4 45-31 81-65 88l7 1c40 2 77-37 81-89 4-51-26-95-66-98" />
	<path fill="#fd8087"
		d="M129 438c34-7 61-43 65-88 4-48-22-90-58-97q-10 2-19 7a17 17 0 0 1-17 0q-15-9-34-8c-40 3-70 47-66 98 4 52 40 91 81 89q15-1 27-9 10 6 21 8" />
	<path fill="#d8ecfe" d="M442 105h-25l50 46-50 92h25l50-92z" />
	<path fill="#eaf6ff" d="M417 105H267l-50 46 50 92h150l50-92z" />
	<path fill="#d8ecfe" d="M217 151h176v236H217z" />
	<path fill="#c4e2ff" d="m492 151-50-46-49 46v236h99z" />
	<path fill="#b3dafe" d="m492 151-50-46-12 12 37 34v236h25z" />
	<path fill="#d8ecfe" d="M417 73H276a9 9 0 0 0-9 9v23h159V82q-1-8-9-9m24 5" />
	<path fill="#b3dafe" d="M433 73h-25a9 9 0 0 1 10 9v23h24V82a9 9 0 0 0-9-9" />
	<path fill="#9facba" d="M485 288h-9l-162 94 16 28 9 2 161-97z" />
	<path fill="#8d9ca8" d="M506 296c-6-11-19-14-29-8h-1l8 8c6 10 2 24-8 30l-146 84 6 10 162-94c11-6 14-20 8-30" />
	<path fill="#d6694b"
		d="M108 290a8 8 0 0 1-7-8c0-17-1-47 11-86q4-6 10-5a8 8 0 0 1 5 10c-12 36-11 64-11 81a8 8 0 0 1-8 8" />
	<path fill="#0ab69f" d="M92 226q-10-5-30-5 0 20 5 30 3 7 10 13c18 15 43-10 28-28q-6-7-13-10" />
	<path fill="#f8e883"
		d="m482 396-14-23c-3-6-11-5-10-5-13 0-13-15-22-19l-29-14c-7-3-14 1-19-6l-9-10c-7-9-18 0-25-9-9-10-10-12-15-14l-31-8-20 1 24 7c5 2 6 4 15 14 7 9 18 0 26 9l8 10c6 7 13 3 19 6l29 14c4 1 4 3 12 14q4 5 10 5s7-1 11 5l13 23 1 16h27z" />
	<path fill="#f8e883"
		d="m482 396-14-23c-3-6-11-5-10-5-13 0-13-15-22-19l-29-14c-7-3-14 1-19-6l-9-10c-7-9-18 0-25-9-9-10-10-12-15-14l-31-8-20 1 24 7c5 2 6 4 15 14 7 9 18 0 26 9l8 10c6 7 13 3 19 6l29 14c4 1 4 3 12 14q4 5 10 5s7-1 11 5l13 23 1 16h27z" />
	<path fill="#fff3be"
		d="M288 289c-27 8-28 8-31 11l-8 10c-8 9-19 0-26 9l-8 10c-6 7-13 2-19 6-32 15-32 14-34 17l-7 11c-4 5-11 5-11 5q-6 0-10 5c-15 25-15 25-15 28v11h344c0-14 0-14-2-16l-13-23c-4-6-11-5-11-5-12 0-13-15-21-19l-30-14c-6-3-13 1-19-6l-8-10c-7-9-19 0-26-9-9-10-10-12-14-14l-25-7z" />
	<path fill="#9facba" d="M471 439H132c-22 0-41-18-41-41q1-10 11-11h399q10 1 11 11c0 22-18 41-41 41" />
	<path fill="#9facba" d="M471 439H132c-22 0-41-18-41-41q1-10 11-11h399q10 1 11 11c0 22-18 41-41 41" />
	<path fill="#8d9ca8" d="M501 387h-25q10 1 11 11c0 23-18 41-41 41h25c23 0 41-18 41-41q-1-10-11-11" />
</svg>