<svg xmlns="http://www.w3.org/2000/svg" xml:space="preserve" viewBox="0 0 50 50">
	<path fill="#c9cee2" d="m42.145 34.761-.01 3.11-19.15 11.13-15.13-8.74.01-3.11 19.15-11.13z" />
	<path fill="#b0b8cf" d="m42.145 34.757-.01 3.113L22.988 49l.009-3.114z" />
	<path fill="#c9cee2" d="m22.996 45.885-.01 3.114-15.13-8.736.009-3.114z" />
	<path fill="#e3e7f0" d="m42.145 34.757-19.15 11.128-15.13-8.736 19.149-11.128z" />
	<path fill="#1d2943" d="m39.395 34.651-16.59 9.58-12.71-7.39-.08-26.26 16.6-9.58 12.71 7.38z" />
	<path fill="#1d2943" d="m22.802 44.229-12.71-7.387-.075-26.26 12.71 7.386z" />
	<path fill="#4c5c75" d="M22.728 17.968 10.017 10.58 26.614 1l12.71 7.386z" />
	<path fill="#1d2943" d="m34.964 8.38-.995.568-11.235 6.487-7.373-4.277-.984-.569 12.23-7.066z" />
	<path fill="#111d33"
		d="m33.969 8.948-11.235 6.487-7.373-4.277 11.246-6.487zm5.356-.563.074 26.261-16.597 9.583-.074-26.261z" />
	<path fill="#4c5c75" d="m23.898 19.16 14.268-8.24.063 22.505-14.268 8.238z" />
	<path fill="#1d2943"
		d="m23.898 19.16 14.268-8.24.011 4.072L23.91 23.23zm0 6.154 14.28-8.245.01 4.07-14.279 8.245zm0 6.154 14.32-8.268.011 4.07-14.32 8.269zm0 6.155 14.32-8.269.011 4.071-14.32 8.268z" />
	<path fill="#f45170" d="m24.782 19.72 6.522-3.766.005 1.593-6.523 3.765z" />
	<path fill="#fff"
		d="M32.817 15.142c.355-.205.645-.04.646.368s-.287.897-.642 1.102c-.355.204-.645.05-.646-.358s.287-.907.642-1.112" />
	<path fill="#57b3fe"
		d="M34.75 14.026c.354-.205.645-.04.646.368s-.287.897-.642 1.102-.655.055-.656-.353c-.001-.407.297-.912.652-1.117" />
	<path fill="#78e75a"
		d="M36.673 12.915c.355-.205.645-.04.647.369 0 .407-.288.896-.643 1.101s-.645.05-.646-.357c-.001-.408.287-.908.642-1.113" />
	<path fill="#f45170" d="m24.782 25.875 6.522-3.766.005 1.593-6.523 3.765z" />
	<path fill="#fff"
		d="M32.817 21.296c.355-.205.645-.04.646.369.001.407-.287.896-.642 1.101s-.645.05-.646-.358c-.002-.407.287-.907.642-1.112" />
	<path fill="#57b3fe"
		d="M34.75 20.18c.354-.205.645-.04.646.369.001.407-.287.896-.642 1.101s-.655.056-.656-.352.297-.913.652-1.118" />
	<path fill="#78e75a"
		d="M36.673 19.07c.355-.205.645-.04.647.368 0 .408-.288.897-.643 1.102s-.645.05-.646-.358.287-.907.642-1.112" />
	<path fill="#f45170" d="m24.782 32.03 6.522-3.767.005 1.593-6.523 3.765z" />
	<path fill="#fff"
		d="M32.817 27.45c.355-.204.645-.039.646.369s-.287.897-.642 1.102c-.355.204-.645.05-.646-.358s.287-.907.642-1.112z" />
	<path fill="#57b3fe"
		d="M34.75 26.335c.354-.205.645-.04.646.368s-.287.897-.642 1.102-.655.055-.656-.353c-.001-.407.297-.912.652-1.117" />
	<path fill="#78e75a"
		d="M36.673 25.224c.355-.205.645-.04.647.369 0 .407-.288.896-.643 1.101s-.645.05-.646-.357c-.001-.408.287-.908.642-1.113" />
	<path fill="#f45170" d="m24.782 38.184 6.522-3.766.005 1.593-6.523 3.765z" />
	<path fill="#fff"
		d="M32.817 33.605c.355-.205.645-.04.646.369s-.287.896-.642 1.101-.645.05-.646-.358c-.002-.407.287-.907.642-1.112" />
	<path fill="#57b3fe"
		d="M34.75 32.49c.354-.206.645-.04.646.368.001.407-.287.896-.642 1.101s-.655.056-.656-.352.297-.913.652-1.118z" />
	<path fill="#78e75a"
		d="M36.673 31.379c.355-.205.645-.04.647.368s-.288.897-.643 1.102-.645.05-.646-.358.287-.907.642-1.112" />
</svg>