<svg xmlns="http://www.w3.org/2000/svg" xml:space="preserve" viewBox="0 0 24 24">
	<path fill="currentColor"
		d="M12 5a.5.5 0 0 1 .5.5v6.376a.5.5 0 0 1-.248.432l-4.5 2.624a.5.5 0 1 1-.504-.864l4.252-2.479V5.5A.5.5 0 0 1 12 5m12 9.5a1.5 1.5 0 0 0-1.5-1.5H18a.5.5 0 0 0 0 1h4.275l-5.726 5.726a.955.955 0 0 1-1.347 0l-1.196-1.195a1.96 1.96 0 0 0-2.762 0l-4.606 4.606a.5.5 0 0 0 .708.707l4.606-4.606a.955.955 0 0 1 1.347 0l1.196 1.195a1.953 1.953 0 0 0 2.761 0L23 14.69v4.311a.5.5 0 0 0 1 0v-4.5ZM1 12C1 5.935 5.935 1 12 1c5.508 0 10.197 4.112 10.907 9.564a.505.505 0 0 0 .561.432.502.502 0 0 0 .432-.561C23.124 4.486 18.009 0 12 0 5.383 0 0 5.383 0 12c0 3.956 1.95 7.657 5.217 9.9a.497.497 0 0 0 .695-.129.5.5 0 0 0-.129-.695A11.01 11.01 0 0 1 1 12" />
</svg>