<svg xmlns="http://www.w3.org/2000/svg" xml:space="preserve" viewBox="0 0 512 512">
	<path fill="#00c8de" d="M501 256a245 245 0 1 1-490 0 245 245 0 0 1 490 0" />
	<path fill="#87523e" d="M504.5 233.3a225.8 225.8 0 1 1-451.6 0 225.8 225.8 0 0 1 451.6 0" />
	<path fill="#6d4336" d="M455.5 373.8A225.8 225.8 0 1 1 138.2 56.5a225.8 225.8 0 0 0 317.3 317.3" />
	<path fill="#00c53b"
		d="M195.6 203.3A40.5 40.5 0 1 1 119 222a40 40 0 0 1 10.1-26.8c5-5.5 7-13 5.7-20.2a41 41 0 0 1-.4-9.2 40.5 40.5 0 1 1 61 37.5" />
	<path fill="#bd7c63"
		d="M443.7 68.3C399.6 24.3 341 0 278.7 0s-121 24.3-165 68.3c-44 44.1-68.3 102.7-68.3 165s24.2 121 68.3 165 102.7 68.3 165 68.3 120.9-24.2 165-68.3 68.3-102.7 68.3-165-24.3-120.9-68.3-165m-165 383.3c-120.4 0-218.3-97.9-218.3-218.3S158.3 15 278.7 15 497 113 497 233.3s-98 218.3-218.3 218.3" />
	<path fill="#ffb509"
		d="M462.4 221.2a45.2 45.2 0 0 1-80 26.7 45 45 0 0 1-80-28 45 45 0 0 1 4.7-20.3 45 45 0 0 1-4.6-21q-11.4 6-25 6a55 55 0 0 1-22.2-4.6 44.8 44.8 0 0 1-72.6-33.7 45 45 0 0 1 46.8-46.7 3 3 0 0 0 2.9-1.4 55 55 0 0 1 74-15.3 27 27 0 0 0 26.3 1.3 45 45 0 0 1 19.8-4.6 45 45 0 0 1 42.7 30.8c2.6 7.8 8.7 14 16.5 16.5a45 45 0 0 1 29.3 54.3 45 45 0 0 1 21.4 40" />
	<path fill="#fa0"
		d="M255.3 180a44.8 44.8 0 0 1-72.6-33.7 45 45 0 0 1 46.8-46.7 3 3 0 0 0 2.9-1.4A55 55 0 0 1 305 82a55 55 0 0 0-17.5 16.2 3 3 0 0 1-2.9 1.4h-1.8a45 45 0 0 0-27.5 80.5" />
	<path fill="#ffe7bf"
		d="M292 365.5a40 40 0 0 0-16.7 6.9c-14 10-32.7 9.8-46.5-.4a40 40 0 0 0-23.2-7.7 40 40 0 0 1-37.4-27.6 40 40 0 0 0-14.2-20 40 40 0 0 1-14-44.3 40 40 0 0 0 .1-24.4 40 40 0 0 1 14.7-44.1 40 40 0 0 0 14.6-19.7 40 40 0 0 1 37.8-27 40 40 0 0 0 23.3-7.4c14-10 32.7-9.9 46.5.3a40 40 0 0 0 13.8 6.5 40 40 0 0 1-6.7.5 40 40 0 0 0-37.8 27 40 40 0 0 1-14.5 19.8 40 40 0 0 0-14.7 44 40 40 0 0 1-.2 24.5 40 40 0 0 0 14 44.4 40 40 0 0 1 14.2 19.9 40 40 0 0 0 37.5 27.6q4.8 0 9.4 1.2" />
	<path fill="#fff"
		d="M365.9 249.7a40 40 0 0 0-.2 24.4 40 40 0 0 1-14.7 44.2 40 40 0 0 0-14.5 19.6 40 40 0 0 1-37.9 27 40 40 0 0 0-23.3 7.5l-.9.6a40 40 0 0 0-21.3-6.4 40 40 0 0 1-37.4-27.6 40 40 0 0 0-14.2-20 40 40 0 0 1-14-44.3 40 40 0 0 0 .1-24.4 40 40 0 0 1 14.7-44.1 40 40 0 0 0 14.6-19.7 40 40 0 0 1 37.8-27A40 40 0 0 0 278 152l1-.7a40 40 0 0 0 21.2 6.4 40 40 0 0 1 37.4 27.7 40 40 0 0 0 14.2 19.9 40 40 0 0 1 14 44.3" />
	<path fill="#ffe7bf"
		d="M225.8 235.5a10 10 0 0 1 0-14.1l14.1-14.2a10 10 0 0 1 14.2 14.2l-14.2 14.1a10 10 0 0 1-14 0m.8 51.7 14.1 14.2a10 10 0 0 0 14.2-14.2l-14.2-14.1a10 10 0 0 0-14.1 14.1" />
	<path fill="#fff"
		d="M171 144.4a10 10 0 0 1 0-14.2l14-14.1a10 10 0 0 1 14.2 14.1l-14.1 14.2a10 10 0 0 1-14.2 0m-17.6 104.2h-20a10 10 0 1 0 0 20h20a10 10 0 1 0 0-20" />
	<path fill="#00c53b"
		d="M369.2 137.2a10 10 0 0 1 0-14.1l14.1-14.2a10 10 0 0 1 14.1 14.2l-14.1 14.1a10 10 0 0 1-14.1 0m-64.5 3.2h-20a10 10 0 1 0 0 20h20a10 10 0 1 0 0-20" />
	<path fill="#008d1c" d="M304.7 96V76a10 10 0 1 0-20 0v20a10 10 0 1 0 20 0" />
	<path fill="#ffc143"
		d="M294.9 391a15 15 0 0 1-14.9-14.9v-167a3.7 3.7 0 0 1 3.7-3.7h167c8.3 0 15 6.6 15 14.8 0 94.3-76.5 170.8-170.8 170.8" />
	<path fill="#ffd98f"
		d="M329.5 399.8a16 16 0 0 1-18.5-13l-31-177.3a4 4 0 0 1 3.3-4.6l177.3-31a16 16 0 0 1 18.5 13 184 184 0 0 1-149.6 212.9" />
	<path fill="#ffcd6b"
		d="M399.2 270.3a21 21 0 1 1-42.2 0 21 21 0 0 1 42.2 0m12.6 21.1a12.7 12.7 0 1 0 0 25.3 12.7 12.7 0 0 0 0-25.3m16.9-59a12.7 12.7 0 1 0 0 25.3 12.7 12.7 0 0 0 0-25.3" />
	<path fill="#00b327"
		d="M193 455.4c3-1.1 5.7 2.1 4 4.9a106 106 0 1 1-146-145c3-1.8 6.6 1.1 5.4 4.3a106.3 106.3 0 0 0 136.5 135.7" />
	<path fill="#00c53b" d="M212 406c0 20.3-5.7 39.3-15.6 55.4A106 106 0 0 1 50.6 315.6 106 106 0 0 1 212 406" />
	<path fill="#80cf00"
		d="M157.3 457.3c-34.1 13.7-70.9 9.6-94.4-14-22.6-22.5-27.3-57.2-15.6-90a10 10 0 0 1 6-6c32.8-11.7 117.7 75.9 104 110" />
	<path fill="#a3e72d"
		d="M157.3 457.3c-34.1 13.7-121.7-71.2-110-104a10 10 0 0 1 6-6c32.8-11.7 67.5-7 90 15.6 23.6 23.5 27.7 60.3 14 94.4" />
	<path fill="#008d1c"
		d="M166.7 466.7a7.5 7.5 0 0 1-10.6 0l-28.6-28.6-30 9.5-2.3.3a7.5 7.5 0 0 1-2.3-14.6l22.6-7.1-14.7-14.8-21.6 6.7-2.2.4a7.5 7.5 0 0 1-7.2-5.3 7.5 7.5 0 0 1 5-9.4l14-4.4-10.6-10.6a7.5 7.5 0 0 1 0-10.6 7.5 7.5 0 0 1 10.6 0l10.6 10.6 4.4-14a7.5 7.5 0 0 1 9.4-5 7.5 7.5 0 0 1 5 9.4l-6.8 21.6 14.8 14.7 7-22.6a7.5 7.5 0 0 1 14.4 4.5l-9.5 30.1 28.6 28.6a7.5 7.5 0 0 1 0 10.6" />
</svg>